<?xml version="1.0" encoding="UTF-8" standalone="no"?>
<svg width="63px" height="51px" viewBox="0 0 63 51" version="1.1" xmlns="http://www.w3.org/2000/svg" xmlns:xlink="http://www.w3.org/1999/xlink">
    <!-- Generator: Sketch 3.6.1 (26313) - http://www.bohemiancoding.com/sketch -->
    <title>key</title>
    <desc>Created with Sketch.</desc>
    <defs></defs>
    <g id="FC660M-Mac-Key-Caps" stroke="none" stroke-width="1" fill="none" fill-rule="evenodd">
        <g id="key">
            <g id="back" stroke-width="0.62503177">
                <path d="M8.11892244,7.077935 L55.2783618,7.077935 L55.2783618,43.797498 L8.11892244,43.797498 L8.11892244,7.077935 L8.11892244,7.077935 L8.11892244,7.077935 Z M31.6986421,43.797498 L31.6986421,7.077935 L31.6986421,43.797498 L31.6986421,43.797498 Z M8.11892244,25.437717 L55.2783618,25.437717 L8.11892244,25.437717 L8.11892244,25.437717 Z" id="grid" stroke="#BDBFC1"></path>
                <path d="M57.0783402,0.778 L38.178565,0.778 L25.0387212,0.778 L6.13894587,0.778 C3.16898118,0.778 0.829009,3.4779679 0.829009,6.89792724 L0.829009,43.9774864 C0.829009,47.3974457 3.25898011,50.0974136 6.13894587,50.0974136 L25.0387212,50.0974136 L38.178565,50.0974136 L57.0783402,50.0974136 C60.0483049,50.0974136 62.3882771,47.3974457 62.3882771,43.9774864 L62.3882771,6.89792724 C62.3882771,3.4779679 59.958306,0.778 57.0783402,0.778 L57.0783402,0.778 L57.0783402,0.778 Z" id="frame" stroke="#96938E"></path>
            </g>
            <g id="front" transform="translate(7.000000, 7.000000)" fill="#000000">
                <path d="M0.675511,34.40502 C0.675511,33.61565 0.898371,32.91052 1.343717,32.28615 C1.789437,31.6619 2.465005,31.3504 3.370795,31.3504 C3.880154,31.3504 4.274963,31.4273 4.555721,31.57927 C4.836605,31.73127 4.976984,31.90915 4.976984,32.11365 L4.976984,32.13065 L4.976984,32.14945 C4.969184,32.24695 4.928194,32.33507 4.853201,32.41382 C4.778581,32.49242 4.68487,32.53182 4.572692,32.53182 C4.512672,32.53182 4.458516,32.52482 4.409727,32.50942 C4.361187,32.49412 4.314147,32.47932 4.269223,32.46442 C4.239523,32.44912 4.209453,32.43432 4.179383,32.41942 C4.149683,32.40422 4.115743,32.38932 4.078559,32.37442 C3.996199,32.33692 3.900746,32.30102 3.792061,32.26742 C3.683501,32.23382 3.543121,32.21682 3.370798,32.21682 C2.839228,32.21682 2.440551,32.4042 2.174891,32.77945 C1.908981,33.15432 1.746266,33.56682 1.686495,34.01682 C1.678995,34.08442 1.673385,34.15182 1.669525,34.21945 C1.665925,34.28685 1.663825,34.35445 1.663825,34.42182 C1.663825,34.48942 1.665925,34.55682 1.669525,34.62445 C1.673425,34.69185 1.679025,34.75945 1.686495,34.82682 C1.746265,35.27682 1.908981,35.6892 2.174891,36.06445 C2.440551,36.43932 2.839228,36.62682 3.370798,36.62682 C3.543121,36.62682 3.687369,36.61002 3.803416,36.57612 C3.919463,36.54252 4.022408,36.50312 4.11225,36.45812 C4.15717,36.43552 4.20209,36.41142 4.247015,36.38512 C4.291935,36.35902 4.336855,36.33802 4.381779,36.32312 C4.411479,36.31612 4.441549,36.30822 4.471619,36.30052 C4.501319,36.29252 4.531389,36.28922 4.561459,36.28922 C4.673513,36.28922 4.765477,36.32462 4.836603,36.39584 C4.907733,36.46704 4.943042,36.57022 4.943042,36.70522 L4.943042,36.75022 C4.943042,36.76542 4.939542,36.78032 4.932062,36.79522 C4.894622,36.96772 4.742893,37.12372 4.477233,37.26222 C4.211198,37.40109 3.842718,37.47059 3.370794,37.47059 C2.465004,37.47059 1.789436,37.16084 1.343716,36.54047 C0.89837,35.92172 0.67551,35.21272 0.67551,34.41584 L0.67551,34.40454 L0.675511,34.40502 L0.675511,34.40502 Z M5.661786,34.40502 C5.661786,33.61565 5.890261,32.91052 6.346962,32.28615 C6.803663,31.6619 7.451279,31.3504 8.289937,31.3504 C9.135956,31.3504 9.785445,31.6619 10.238152,32.28615 C10.691235,32.91052 10.917589,33.61915 10.917589,34.41602 C10.917589,35.2129 10.691235,35.9219 10.238152,36.54065 C9.785445,37.16102 9.135956,37.47077 8.289937,37.47077 C7.451279,37.47077 6.803663,37.16102 6.346962,36.54065 C5.890261,35.9219 5.661786,35.2129 5.661786,34.41602 L5.661786,34.40472 L5.661786,34.40502 L5.661786,34.40502 Z M6.650056,34.41002 C6.650056,34.48512 6.652156,34.5564 6.655756,34.62402 C6.659656,34.69142 6.665256,34.75902 6.672726,34.8264 C6.725016,35.2764 6.876744,35.68878 7.127555,36.06402 C7.378366,36.4389 7.765688,36.6264 8.289896,36.6264 C8.813729,36.6264 9.201426,36.4389 9.452112,36.06402 C9.702923,35.68877 9.854658,35.2764 9.907066,34.8264 C9.914466,34.759 9.920176,34.6914 9.923656,34.62402 C9.927556,34.55642 9.929256,34.48902 9.929256,34.4214 C9.929256,34.354 9.927456,34.2864 9.923656,34.21902 C9.920156,34.15142 9.914456,34.08402 9.907066,34.0164 C9.854656,33.5664 9.702923,33.1539 9.452112,32.77902 C9.201426,32.40377 8.813729,32.2164 8.289896,32.2164 C7.765688,32.2164 7.378366,32.40377 7.127555,32.77902 C6.876744,33.1539 6.725009,33.5664 6.672726,34.0164 C6.665226,34.084 6.659626,34.1514 6.655756,34.21902 C6.652156,34.28642 6.650056,34.35402 6.650056,34.4214 L6.650056,34.4101 L6.650056,34.41002 L6.650056,34.41002 Z M11.96251,36.9414 L11.96251,31.86765 C11.96251,31.71003 12.00743,31.58453 12.097274,31.49065 C12.187114,31.39715 12.306658,31.35003 12.456645,31.35003 C12.606258,31.35003 12.726174,31.39713 12.816016,31.49065 C12.905856,31.58455 12.950781,31.7139 12.950781,31.87903 L12.950781,32.10403 L12.972991,32.12643 C13.167525,31.88655 13.392132,31.70468 13.646812,31.58068 C13.901491,31.45706 14.159789,31.38406 14.42183,31.36143 C14.45938,31.35443 14.4947,31.35013 14.528269,31.35013 L14.623849,31.35013 C14.698839,31.35013 14.77733,31.35413 14.859686,31.36143 C14.942166,31.36843 15.024523,31.38403 15.107003,31.40643 C15.503435,31.48893 15.868546,31.70468 16.201713,32.05518 C16.53488,32.4038 16.701463,32.92893 16.701463,33.62655 L16.701463,36.94143 C16.701463,37.11393 16.656543,37.24505 16.566699,37.33506 C16.476859,37.42546 16.356941,37.47043 16.207328,37.47043 C16.057715,37.47043 15.937799,37.42543 15.847957,37.33506 C15.758117,37.24506 15.713193,37.1178 15.713193,36.95268 L15.713193,33.67906 C15.713193,33.2138 15.589783,32.86518 15.342591,32.63268 C15.095648,32.4003 14.822252,32.2653 14.523025,32.22768 C14.492955,32.22768 14.461135,32.22668 14.427445,32.22168 C14.393505,32.21768 14.361685,32.21568 14.331995,32.21568 C14.301925,32.21568 14.270105,32.21768 14.236545,32.22168 C14.202855,32.22568 14.171035,32.22768 14.140965,32.22768 C13.841364,32.26528 13.568342,32.4003 13.321149,32.63268 C13.074207,32.86518 12.950798,33.21768 12.950798,33.69005 L12.950798,36.94143 C12.950798,37.11393 12.905878,37.24505 12.816033,37.33505 C12.726193,37.42545 12.606275,37.47043 12.456662,37.47043 C12.306675,37.47043 12.187134,37.42543 12.097291,37.33505 C12.007451,37.24505 11.962527,37.1178 11.962527,36.95268 L11.962527,36.94138 L11.96251,36.9414 L11.96251,36.9414 Z M18.319012,31.41765 L18.319012,30.12403 C18.319012,29.9664 18.363932,29.8409 18.453776,29.74702 C18.543616,29.65352 18.663159,29.6064 18.813147,29.6064 C18.96276,29.6064 19.082675,29.6535 19.172518,29.74702 C19.262358,29.84092 19.307282,29.97027 19.307282,30.13502 L19.307282,31.41765 L19.711575,31.41765 C19.876037,31.42465 19.999571,31.46655 20.081927,31.5414 C20.164407,31.6165 20.20571,31.7214 20.20571,31.8564 C20.20571,31.9914 20.1644,32.09652 20.081927,32.1714 C19.999567,32.2465 19.876037,32.28403 19.711575,32.28403 L19.307282,32.28403 L19.307282,36.9414 C19.307282,37.1139 19.262362,37.24503 19.172518,37.33503 C19.082678,37.42543 18.96276,37.4704 18.813147,37.4704 C18.663159,37.4704 18.543618,37.4254 18.453776,37.33503 C18.363936,37.24503 18.319012,37.11778 18.319012,36.95265 L18.319012,32.28403 L17.914719,32.28403 C17.749882,32.29203 17.626473,32.25563 17.544118,32.17878 C17.461638,32.10188 17.420584,31.99528 17.420584,31.8564 C17.420584,31.7214 17.461644,31.61653 17.544118,31.5414 C17.626478,31.4665 17.749882,31.42903 17.914719,31.42903 L18.319012,31.41773 L18.319012,31.41765 L18.319012,31.41765 Z M20.924452,36.9414 L20.924452,31.86765 C20.924452,31.71003 20.969372,31.58453 21.059216,31.49065 C21.149056,31.39715 21.2686,31.35003 21.418587,31.35003 C21.568201,31.35003 21.688116,31.39713 21.777959,31.49065 C21.867799,31.58455 21.912723,31.7139 21.912723,31.87903 L21.912723,32.37403 L21.935063,32.37403 C21.949903,32.34393 21.970753,32.31023 21.996953,32.27265 C22.023163,32.23515 22.047483,32.19405 22.069823,32.14903 C22.204587,31.95377 22.380404,31.77202 22.597524,31.6034 C22.814769,31.43465 23.043244,31.35002 23.2827,31.35002 C23.454899,31.35002 23.589663,31.39892 23.686993,31.4964 C23.784193,31.5938 23.833112,31.7139 23.833112,31.8564 C23.833112,32.00265 23.782452,32.12065 23.681253,32.21278 C23.58018,32.30448 23.424827,32.37015 23.215443,32.40765 C23.170523,32.41465 23.123483,32.42465 23.075064,32.43565 C23.026274,32.44695 22.979614,32.46405 22.934684,32.48635 C22.680005,32.57635 22.446164,32.7471 22.232538,32.99835 C22.019162,33.24947 21.912723,33.61873 21.912723,34.10635 L21.912723,36.94135 C21.912723,37.11385 21.867803,37.24497 21.777959,37.33497 C21.688119,37.42537 21.568201,37.47035 21.418587,37.47035 C21.2686,37.47035 21.149059,37.42535 21.059216,37.33497 C20.969376,37.24497 20.924452,37.11772 20.924452,36.9526 L20.924452,36.9413 L20.924452,36.9414 L20.924452,36.9414 Z M24.203339,34.40465 C24.203339,33.61527 24.431939,32.91015 24.888515,32.28577 C25.345216,31.66152 25.992833,31.35002 26.83149,31.35002 C27.67751,31.35002 28.326998,31.66152 28.779706,32.28577 C29.232788,32.91015 29.459142,33.61877 29.459142,34.41565 C29.459142,35.21252 29.232788,35.92152 28.779706,36.54027 C28.326998,37.16065 27.67751,37.4704 26.83149,37.4704 C25.992833,37.4704 25.345216,37.16065 24.888515,36.54027 C24.431939,35.92152 24.203339,35.21252 24.203339,34.41565 L24.203339,34.40435 L24.203339,34.40465 L24.203339,34.40465 Z M25.19161,34.40965 C25.19161,34.48475 25.19371,34.55602 25.19731,34.62365 C25.20121,34.69105 25.20681,34.75865 25.21428,34.82603 C25.26656,35.27602 25.418298,35.6884 25.669109,36.06365 C25.91992,36.43852 26.307243,36.62603 26.83145,36.62603 C27.355284,36.62603 27.74298,36.43853 27.993667,36.06365 C28.244478,35.6884 28.396212,35.27602 28.44862,34.82603 C28.45602,34.75863 28.46173,34.69102 28.46522,34.62365 C28.46912,34.55605 28.47082,34.48865 28.47082,34.42102 C28.47082,34.35362 28.46902,34.28602 28.46522,34.21865 C28.46172,34.15105 28.45592,34.08365 28.44862,34.01602 C28.39621,33.56602 28.244478,33.15352 27.993667,32.77865 C27.74298,32.4034 27.355284,32.21602 26.83145,32.21602 C26.307243,32.21602 25.91992,32.4034 25.669109,32.77865 C25.418298,33.15352 25.266564,33.56603 25.21428,34.01602 C25.20678,34.08362 25.20117,34.15102 25.19731,34.21865 C25.19371,34.28605 25.19161,34.35365 25.19161,34.42102 L25.19161,34.40972 L25.19161,34.40965 L25.19161,34.40965 Z M31.492334,29.24603 L31.492334,36.94103 C31.492334,37.11352 31.447414,37.24465 31.35757,37.33465 C31.26773,37.42505 31.147812,37.47003 30.998199,37.47003 C30.848211,37.47003 30.72867,37.42503 30.638828,37.33465 C30.548988,37.24465 30.504064,37.1174 30.504064,36.95228 L30.504064,29.24603 C30.504064,29.08865 30.548984,28.9629 30.638828,28.86928 C30.728668,28.77538 30.848211,28.72865 30.998199,28.72865 C31.147812,28.72865 31.267727,28.77535 31.35757,28.86928 C31.44741,28.96288 31.492334,29.09215 31.492334,29.25728 L31.492334,29.24608 L31.492334,29.24603 L31.492334,29.24603 Z" id="letter"></path>
                <g id="symbol" transform="translate(35.720693, 0.781920)">
                    <path d="M8.906098,5.78046 L4.640279,1.57479 C5.245144,0.85356 4.910801,0.91851 5.460181,0.7119 L9.726001,4.91757 C9.824871,5.02641 9.872641,5.15553 9.867433,5.30745 C9.862333,5.45931 9.802233,5.59573 9.68934,5.71454 C9.576215,5.83359 9.443337,5.9007 9.291648,5.91343 C9.140247,5.92633 9.01241,5.88143 8.906098,5.78046" id="path7391"></path>
                    <path d="M1.191626,5.79196 L5.501639,1.50895 C5.615227,1.41545 5.668607,1.29208 5.66149,1.13817 C5.65439,0.98426 5.59251,0.84617 5.475807,0.72335 C5.359273,0.6007 5.2247,0.53181 5.071247,0.51698 C4.917911,0.50208 4.788092,0.54498 4.681737,0.64606 L0.371723,4.92907 C0.272853,5.03791 0.225083,5.16703 0.230291,5.31895 C0.235391,5.47081 0.295491,5.60723 0.408384,5.72604 C0.521509,5.84509 0.654387,5.9122 0.806076,5.92493 C0.957477,5.93783 1.085314,5.89293 1.191626,5.79196" id="path7403"></path>
                </g>
            </g>
        </g>
    </g>
</svg>