<?xml version="1.0" encoding="UTF-8" standalone="no"?>
<svg width="400px" height="100px" viewBox="0 0 400 100" version="1.1" xmlns="http://www.w3.org/2000/svg" xmlns:xlink="http://www.w3.org/1999/xlink">
    <!-- Generator: Sketch 3.7.2 (28276) - http://www.bohemiancoding.com/sketch -->
    <title>Slice 1</title>
    <desc>Created with Sketch.</desc>
    <defs></defs>
    <g id="Arrange" stroke="none" stroke-width="1" fill="none" fill-rule="evenodd">
        <g id="Key" transform="translate(322.000000, 25.000000)">
            <g id="Back" stroke-width="0.62503177">
                <path d="M56.2193143,0.778 L37.319539,0.778 L24.2696942,0.778 L5.36991887,0.778 C2.39995418,0.778 0.059982,3.4779679 0.059982,6.89792724 L0.059982,43.9774864 C0.059982,47.3974457 2.48995311,50.0974136 5.36991887,50.0974136 L24.2696942,50.0974136 L37.319539,50.0974136 L56.2193143,50.0974136 C59.189279,50.0974136 61.5292512,47.3074468 61.5292512,43.9774864 L61.5292512,6.89792724 C61.5292512,3.4779679 59.0992801,0.778 56.2193143,0.778 L56.2193143,0.778 L56.2193143,0.778 Z" id="Frame" stroke="#96938E"></path>
                <path d="M7.169898,7.077935 L54.329337,7.077935 L54.329337,43.797498 L7.169898,43.797498 L7.169898,7.077935 L7.169898,7.077935 L7.169898,7.077935 Z M30.749618,43.797498 L30.749618,7.077935 L30.749618,43.797498 L30.749618,43.797498 Z M7.169898,25.437717 L54.329337,25.437717 L7.169898,25.437717 L7.169898,25.437717 Z" id="Grid" stroke="#BDBFC1"></path>
            </g>
            <g id="Front" transform="translate(7.000000, 7.000000)" fill="#000000">
                <path d="M18.95632,34.47277 C18.95632,33.68327 19.1848,32.97815 19.6415,32.3539 C20.09807,31.72952 20.7457,31.41802 21.58435,31.41802 C22.43049,31.41802 23.07985,31.72952 23.53269,32.3539 C23.98578,32.97815 24.21212,33.6869 24.21212,34.48377 C24.21212,35.28065 23.98577,35.98965 23.53269,36.60827 C23.07986,37.22877 22.4305,37.5384 21.58435,37.5384 C20.7457,37.5384 20.09807,37.22877 19.6415,36.60827 C19.1848,35.98965 18.95632,35.28065 18.95632,34.48377 L18.95632,34.47247 L18.95632,34.47277 L18.95632,34.47277 Z M19.9446,34.47777 C19.9446,34.55287 19.9466,34.62415 19.9506,34.69177 C19.9546,34.75917 19.9606,34.82677 19.9676,34.89415 C20.02,35.34415 20.17174,35.75665 20.42255,36.13177 C20.67336,36.50665 21.06056,36.69415 21.58477,36.69415 C22.10872,36.69415 22.49629,36.50665 22.7471,36.13177 C22.99792,35.75665 23.14965,35.34415 23.20194,34.89415 C23.20994,34.82675 23.21504,34.75915 23.21874,34.69177 C23.22274,34.62417 23.22474,34.55677 23.22474,34.48915 C23.22474,34.42175 23.22374,34.35415 23.21874,34.28677 C23.21474,34.21917 23.20974,34.15177 23.20194,34.08415 C23.14964,33.63415 22.99792,33.22165 22.7471,32.84677 C22.49629,32.47165 22.10872,32.28415 21.58477,32.28415 C21.06056,32.28415 20.67336,32.47165 20.42255,32.84677 C20.17174,33.22165 20.02001,33.63415 19.9676,34.08415 C19.9606,34.15175 19.9546,34.21915 19.9506,34.28677 C19.9466,34.35417 19.9446,34.42177 19.9446,34.48915 L19.9446,34.47785 L19.9446,34.47777 L19.9446,34.47777 Z M25.30197,39.37177 L25.30197,31.93553 C25.30197,31.77778 25.34687,31.6524 25.43674,31.55853 C25.52654,31.46493 25.64612,31.41777 25.79611,31.41777 C25.94572,31.41777 26.06564,31.46487 26.15548,31.55853 C26.24528,31.65243 26.29023,31.78165 26.29023,31.94678 L26.29023,32.22778 L26.31253,32.22778 C26.45479,31.96565 26.65881,31.76465 26.92446,31.62615 C27.19051,31.48728 27.51806,31.41778 27.90749,31.41778 C28.71608,31.41778 29.34286,31.72928 29.78845,32.35365 C30.2338,32.9779 30.45666,33.68665 30.45666,34.48353 C30.45666,35.2804 30.2338,35.9894 29.78845,36.60803 C29.34286,37.22853 28.71608,37.53815 27.90749,37.53815 C27.57033,37.53815 27.27648,37.47055 27.02567,37.33553 C26.77486,37.20053 26.5782,37.04853 26.43595,36.88378 C26.41375,36.86108 26.39105,36.83668 26.36885,36.81038 C26.34605,36.78408 26.32745,36.75968 26.31255,36.73738 L26.29025,36.72618 L26.29025,39.37193 C26.29025,39.5368 26.24535,39.66643 26.15549,39.75993 C26.06569,39.85393 25.94574,39.90068 25.79612,39.90068 C25.64613,39.90068 25.52659,39.85398 25.43675,39.75993 C25.34685,39.66643 25.30198,39.53681 25.30198,39.37193 L25.30197,39.37177 L25.30197,39.37177 Z M26.18904,34.47777 C26.18904,34.55287 26.19004,34.62415 26.19504,34.69177 C26.19904,34.75917 26.20404,34.82677 26.21164,34.89415 C26.26404,35.34415 26.41578,35.75665 26.6666,36.13177 C26.91741,36.50665 27.30498,36.69415 27.82881,36.69415 C28.35301,36.69415 28.74034,36.50665 28.99115,36.13177 C29.24196,35.75665 29.39369,35.34415 29.44598,34.89415 C29.45398,34.82675 29.45908,34.75915 29.46308,34.69177 C29.46708,34.62417 29.46908,34.55677 29.46908,34.48915 C29.46908,34.42175 29.46708,34.35415 29.46308,34.28677 C29.45908,34.21917 29.45308,34.15177 29.44598,34.08415 C29.39368,33.63415 29.24196,33.22165 28.99115,32.84677 C28.74034,32.47165 28.35301,32.28415 27.82881,32.28415 C27.30498,32.28415 26.91741,32.47165 26.6666,32.84677 C26.41578,33.22165 26.26405,33.63415 26.21164,34.08415 C26.20464,34.15175 26.19864,34.21915 26.19504,34.28677 C26.19104,34.35417 26.18904,34.42177 26.18904,34.48915 L26.18904,34.47785 L26.18904,34.47777 L26.18904,34.47777 Z M31.81557,31.48552 L31.81557,30.19177 C31.81557,30.03415 31.86047,29.90877 31.95033,29.81477 C32.04013,29.72127 32.15972,29.67415 32.30971,29.67415 C32.45932,29.67415 32.57924,29.72125 32.66908,29.81477 C32.75888,29.90877 32.80385,30.03802 32.80385,30.20277 L32.80385,31.48552 L33.20813,31.48552 C33.37259,31.49252 33.496,31.53442 33.57836,31.60915 C33.66086,31.68425 33.70226,31.78915 33.70226,31.92415 C33.70226,32.05915 33.66086,32.1644 33.57836,32.23915 C33.49596,32.31425 33.37259,32.35177 33.20813,32.35177 L32.80385,32.35177 L32.80385,37.00915 C32.80385,37.18165 32.75895,37.31277 32.66908,37.40277 C32.57928,37.49317 32.45932,37.53815 32.30971,37.53815 C32.15972,37.53815 32.04018,37.49315 31.95033,37.40277 C31.86053,37.31277 31.81557,37.18565 31.81557,37.02052 L31.81557,32.35177 L31.41128,32.35177 C31.24644,32.35877 31.12291,32.32347 31.04055,32.24665 C30.95805,32.16965 30.91715,32.06302 30.91715,31.92415 C30.91715,31.78915 30.95805,31.68427 31.04055,31.60915 C31.12295,31.53445 31.24644,31.49678 31.41128,31.49678 L31.81557,31.48548 L31.81557,31.48552 L31.81557,31.48552 Z M35.40929,31.93552 L35.40929,37.00915 C35.40929,37.18165 35.36439,37.31277 35.27452,37.40277 C35.18472,37.49317 35.06476,37.53815 34.91515,37.53815 C34.76516,37.53815 34.64562,37.49315 34.55578,37.40277 C34.46598,37.31277 34.42102,37.18565 34.42102,37.02052 L34.42102,31.93552 C34.42102,31.77777 34.46592,31.6524 34.55578,31.55852 C34.64558,31.46492 34.76516,31.41777 34.91515,31.41777 C35.06476,31.41777 35.18468,31.46487 35.27452,31.55852 C35.36432,31.65242 35.40929,31.78165 35.40929,31.94677 L35.40929,31.93547 L35.40929,31.93552 L35.40929,31.93552 Z M34.30846,29.99477 C34.30846,29.8279 34.36826,29.68552 34.48815,29.56927 C34.60806,29.45127 34.75031,29.39277 34.91515,29.39277 C35.08697,29.39277 35.23135,29.45127 35.34739,29.56927 C35.46331,29.68552 35.52134,29.83177 35.52134,30.00615 C35.52134,30.17302 35.46334,30.31727 35.34739,30.4374 C35.23135,30.55927 35.08697,30.61915 34.91515,30.61915 C34.75031,30.61915 34.60806,30.55925 34.48815,30.4374 C34.36823,30.31727 34.30846,30.17302 34.30846,30.00615 L34.30846,29.99485 L34.30846,29.99477 L34.30846,29.99477 Z M36.45333,34.47252 C36.45333,33.68302 36.68193,32.9779 37.1385,32.35365 C37.5952,31.72927 38.24282,31.41777 39.08148,31.41777 C39.9275,31.41777 40.57698,31.72927 41.02969,32.35365 C41.48278,32.9779 41.70913,33.68665 41.70913,34.48352 C41.70913,35.2804 41.48278,35.9894 41.02969,36.60802 C40.57698,37.22852 39.9275,37.53815 39.08148,37.53815 C38.24282,37.53815 37.5952,37.22852 37.1385,36.60802 C36.68193,35.9894 36.45333,35.2804 36.45333,34.48352 L36.45333,34.47222 L36.45333,34.47252 L36.45333,34.47252 Z M37.4416,34.47752 C37.4416,34.55262 37.4446,34.6239 37.4476,34.69152 C37.4516,34.75892 37.4576,34.82652 37.4646,34.8939 C37.5169,35.3439 37.66862,35.7564 37.91943,36.13152 C38.17024,36.5064 38.55757,36.6939 39.08177,36.6939 C39.6056,36.6939 39.9933,36.5064 40.24412,36.13152 C40.4948,35.7564 40.64653,35.3439 40.69894,34.8939 C40.70594,34.8265 40.71204,34.7589 40.71554,34.69152 C40.71954,34.62392 40.72154,34.55652 40.72154,34.4889 C40.72154,34.4215 40.72054,34.3539 40.71554,34.28652 C40.71154,34.21892 40.70654,34.15152 40.69894,34.0839 C40.64654,33.6339 40.4948,33.2214 40.24412,32.84652 C39.9933,32.4714 39.6056,32.2839 39.08177,32.2839 C38.55757,32.2839 38.17024,32.4714 37.91943,32.84652 C37.66862,33.2214 37.51689,33.6339 37.4646,34.0839 C37.4566,34.1515 37.4515,34.2189 37.4476,34.28652 C37.4436,34.35392 37.4416,34.42152 37.4416,34.4889 L37.4416,34.4776 L37.4416,34.47752 L37.4416,34.47752 Z M42.75405,37.0089 L42.75405,31.93527 C42.75405,31.77752 42.79895,31.65215 42.88882,31.55827 C42.97862,31.46467 43.0982,31.41752 43.24819,31.41752 C43.3978,31.41752 43.51772,31.46462 43.60756,31.55827 C43.69736,31.65217 43.74232,31.7814 43.74232,31.94652 L43.74232,32.17152 L43.76472,32.19392 C43.95925,31.95404 44.18386,31.77229 44.43854,31.64829 C44.69322,31.52454 44.95139,31.45154 45.21343,31.42892 C45.25093,31.42192 45.28633,31.41762 45.32,31.41762 L45.4154,31.41762 C45.4904,31.41762 45.56888,31.42162 45.65136,31.42892 C45.73376,31.43592 45.81619,31.45152 45.89855,31.47392 C46.29511,31.55642 46.6601,31.77229 46.99326,32.12267 C47.32643,32.47142 47.49314,32.99642 47.49314,33.69417 L47.49314,37.00892 C47.49314,37.18142 47.44824,37.31254 47.35838,37.40254 C47.26858,37.49294 47.14861,37.53792 46.999,37.53792 C46.84939,37.53792 46.72948,37.49292 46.63963,37.40254 C46.54983,37.31254 46.50487,37.18542 46.50487,37.02029 L46.50487,33.74654 C46.50487,33.28142 46.38134,32.93267 46.13414,32.70029 C45.8872,32.46779 45.6138,32.33279 45.31457,32.29529 C45.28457,32.29529 45.25267,32.29429 45.21917,32.28929 C45.18527,32.28529 45.15327,32.28329 45.12357,32.28329 C45.09357,32.28329 45.06167,32.28529 45.02817,32.28929 C44.99467,32.29329 44.96277,32.29529 44.93277,32.29529 C44.63317,32.33279 44.36002,32.46779 44.11283,32.70029 C43.86589,32.93267 43.74247,33.28529 43.74247,33.75754 L43.74247,37.00892 C43.74247,37.18142 43.69757,37.31254 43.60771,37.40254 C43.51791,37.49294 43.39796,37.53792 43.24834,37.53792 C43.09835,37.53792 42.97881,37.49292 42.88897,37.40254 C42.79917,37.31254 42.7542,37.18542 42.7542,37.02029 L42.7542,37.00909 L42.75405,37.0089 L42.75405,37.0089 Z" id="DR"></path>
                <path d="M42.98615,3.09677 L42.98615,7.11278 C42.98615,7.22365 42.95985,7.3069 42.90715,7.36215 C42.85485,7.41755 42.79684,7.45405 42.73245,7.47165 C42.71505,7.47765 42.69785,7.48165 42.68015,7.48475 C42.66275,7.48675 42.64555,7.48875 42.62775,7.48875 C42.61655,7.48875 42.60305,7.48775 42.58845,7.48475 C42.57395,7.48275 42.55815,7.47975 42.54045,7.47975 C42.47065,7.46235 42.40818,7.42585 42.35265,7.37063 C42.29735,7.31503 42.26975,7.23213 42.26975,7.12125 L42.26975,6.78888 L42.25215,6.78888 C42.08906,7.028 41.89977,7.2045 41.68439,7.31825 C41.46902,7.432 41.2363,7.48863 40.98587,7.48863 C40.33363,7.48863 39.82989,7.248 39.47476,6.7655 C39.11925,6.28425 38.94169,5.73288 38.94169,5.11325 C38.94169,4.4935 39.11925,3.94213 39.47476,3.45638 C39.82989,2.97088 40.33363,2.72888 40.98587,2.72888 C41.25352,2.72888 41.48636,2.78278 41.68439,2.8905 C41.88242,2.99863 42.07172,3.15163 42.25215,3.35013 L42.26975,3.34113 L42.26975,3.09625 C42.26975,2.991 42.29735,2.9095 42.35265,2.851 C42.40815,2.7929 42.47069,2.755 42.54045,2.73725 C42.55815,2.73725 42.57395,2.73625 42.58845,2.73325 C42.60305,2.73125 42.61605,2.72925 42.62775,2.72925 C42.64555,2.72925 42.66275,2.73025 42.68015,2.73325 C42.69775,2.73525 42.71505,2.74025 42.73245,2.74635 C42.79685,2.76375 42.85487,2.80165 42.90715,2.8601 C42.95995,2.9186 42.98615,3.0001 42.98615,3.10497 L42.98615,3.09597 L42.98615,3.09677 L42.98615,3.09677 Z M39.71038,5.10902 C39.71038,5.16752 39.71138,5.22277 39.71538,5.27552 C39.71738,5.32802 39.72238,5.3804 39.72848,5.4329 C39.76918,5.7829 39.88695,6.10365 40.08212,6.39527 C40.27703,6.68715 40.57837,6.83277 40.98629,6.83277 C41.39369,6.83277 41.69505,6.68715 41.89032,6.39527 C42.08523,6.10365 42.20303,5.7829 42.24409,5.4329 C42.24909,5.3804 42.25409,5.32802 42.25709,5.27552 C42.26009,5.22282 42.26109,5.17027 42.26109,5.1179 C42.26109,5.0654 42.26009,5.01303 42.25709,4.96052 C42.25309,4.90782 42.24909,4.85527 42.24409,4.8029 C42.20309,4.45278 42.08523,4.13215 41.89032,3.84053 C41.69505,3.5489 41.39369,3.4029 40.98629,3.4029 C40.57837,3.4029 40.27703,3.5489 40.08212,3.84053 C39.88696,4.13215 39.76916,4.45277 39.72848,4.8029 C39.72248,4.8553 39.71848,4.90778 39.71538,4.96052 C39.71138,5.01302 39.71038,5.0654 39.71038,5.1179 L39.71038,5.1089 L39.71038,5.10902 L39.71038,5.10902 Z M44.76778,1.09302 L44.76778,7.07802 C44.76778,7.2119 44.73308,7.31402 44.66309,7.38415 C44.59299,7.45405 44.5,7.48902 44.38357,7.48902 C44.26728,7.48902 44.17382,7.45402 44.10419,7.38415 C44.03419,7.31405 43.99912,7.21478 43.99912,7.08652 L43.99912,1.09302 C43.99912,0.9704 44.03412,0.87265 44.10419,0.80002 C44.17379,0.72702 44.26729,0.69052 44.38357,0.69052 C44.5,0.69052 44.59297,0.72702 44.66309,0.80002 C44.73309,0.87262 44.76778,0.97327 44.76778,1.1019 L44.76778,1.0929 L44.76778,1.09302 L44.76778,1.09302 Z M46.02583,2.78177 L46.02583,1.77553 C46.02583,1.6529 46.06053,1.5554 46.13064,1.4824 C46.20064,1.4094 46.29361,1.3729 46.41003,1.3729 C46.52632,1.3729 46.61979,1.4094 46.68942,1.4824 C46.75952,1.5554 46.79448,1.65565 46.79448,1.78427 L46.79448,2.78177 L47.10893,2.78177 C47.23696,2.78777 47.33316,2.81967 47.39718,2.87777 C47.46118,2.93627 47.49308,3.01815 47.49308,3.12302 C47.49308,3.2279 47.46118,3.30977 47.39718,3.36777 C47.33318,3.42627 47.23696,3.45537 47.10893,3.45537 L46.79448,3.45537 L46.79448,7.07799 C46.79448,7.21187 46.75958,7.31399 46.68942,7.38412 C46.61982,7.45402 46.52632,7.48899 46.41003,7.48899 C46.29361,7.48899 46.20064,7.45399 46.13064,7.38412 C46.06054,7.31402 46.02583,7.21475 46.02583,7.08649 L46.02583,3.45537 L45.71138,3.45537 C45.58335,3.46137 45.48715,3.43337 45.42313,3.37387 C45.35913,3.31397 45.32693,3.23062 45.32693,3.12299 C45.32693,3.01812 45.35903,2.93624 45.42313,2.87774 C45.48713,2.81964 45.58335,2.79024 45.71138,2.79024 L46.02583,2.78124 L46.02583,2.78177 L46.02583,2.78177 Z" id="UR"></path>
                <path d="M7.95625394,10.6857877 C8.04301444,10.7553623 8.14381078,10.7859136 8.25871632,10.7777216 L11.0906791,10.7777216 C11.2373352,10.7777216 11.3609007,10.7221763 11.4617711,10.6085411 C11.562938,10.4948255 11.6130722,10.3546497 11.6130722,10.1904173 C11.6130722,10.0265268 11.5626415,9.88627051 11.4617711,9.77263536 C11.3609007,9.65891975 11.2373352,9.59817488 11.0906791,9.58741378 L8.55643729,9.58741378 L4.54528991,1.6117529 C4.50365524,1.52897027 4.44960733,1.46420263 4.38420912,1.41677622 C4.29692478,1.34428899 4.19539925,1.30452925 4.0794371,1.29602036 L1.24747428,1.29602036 C1.10076434,1.29602036 0.977055033,1.35429119 0.876193632,1.47075239 C0.775206446,1.58720352 0.725072238,1.72984334 0.725072238,1.89902385 C0.725072238,2.06845578 0.775323246,2.21118611 0.876193632,2.32764731 C0.977055033,2.44408839 1.10076434,2.49678758 1.24747428,2.4863282 L3.76492253,2.4863282 L7.78672701,10.4831794 L7.78674498,10.483119 C7.83154683,10.569296 7.88788944,10.6369153 7.95625394,10.6857877 Z M11.0906791,2.4863282 L8.25871632,2.4863282 C8.11200638,2.49678758 7.98829708,2.44408839 7.88743567,2.32764731 C7.78656529,2.21118611 7.73631428,2.06845578 7.73631428,1.89902385 C7.73631428,1.72984334 7.78644849,1.58720352 7.88743567,1.47075239 C7.98829708,1.35429119 8.11200638,1.29602036 8.25871632,1.29602036 L11.0906791,1.29602036 C11.2373352,1.30678146 11.3609007,1.36752633 11.4617711,1.48124194 C11.5626415,1.59487709 11.6130722,1.73513338 11.6130722,1.89902385 C11.6130722,2.06325626 11.562938,2.20343209 11.4617711,2.3171477 C11.3609007,2.43078285 11.2373352,2.4863282 11.0906791,2.4863282 Z" id="UL"></path>
            </g>
        </g>
        <g id="Key" transform="translate(242.000000, 25.000000)">
            <g id="Back" stroke-width="0.62503177">
                <path d="M56.9732117,0.778 L38.0455392,0.778 L24.9764321,0.778 L6.04875964,0.778 C3.07441111,0.778 0.730985,3.4779679 0.730985,6.89792724 L0.730985,43.9774864 C0.730985,47.3974457 3.16454289,50.0974136 6.04875964,50.0974136 L24.9764321,50.0974136 L38.0455392,50.0974136 L56.9732117,50.0974136 C59.9475602,50.0974136 62.2909864,47.3974457 62.2909864,43.9774864 L62.2909864,6.89792724 C62.2909864,3.4779679 59.8574285,0.778 56.9732117,0.778 L56.9732117,0.778 L56.9732117,0.778 Z" id="Frame" stroke="#96938E"></path>
                <path d="M7.840901,7.077935 L55.00034,7.077935 L55.00034,43.797498 L7.840901,43.797498 L7.840901,7.077935 L7.840901,7.077935 L7.840901,7.077935 Z M31.42062,43.797498 L31.42062,7.077935 L31.42062,43.797498 L31.42062,43.797498 Z M7.840901,25.437717 L55.00034,25.437717 L7.840901,25.437717 L7.840901,25.437717 Z" id="Grid" stroke="#BDBFC1"></path>
            </g>
            <g id="Front" transform="translate(7.000000, 8.000000)" fill="#000000">
                <path d="M0.94809,33.40502 C0.94809,32.61565 1.17095,31.91052 1.61617,31.28615 C2.06189,30.6619 2.73745,30.3504 3.64336,30.3504 C4.15272,30.3504 4.54741,30.4273 4.82829,30.57927 C5.10905,30.73127 5.24955,30.90915 5.24955,31.11365 L5.24955,31.13065 L5.24955,31.14945 C5.24255,31.24695 5.20075,31.33507 5.12576,31.41382 C5.05116,31.49242 4.95732,31.53182 4.84527,31.53182 C4.78517,31.53182 4.73097,31.52482 4.68217,31.50942 C4.63377,31.49412 4.58677,31.47932 4.5418,31.46442 C4.5121,31.44912 4.482,31.43432 4.452,31.41942 C4.4223,31.40422 4.3882,31.38932 4.35118,31.37442 C4.26868,31.33692 4.17324,31.30102 4.06468,31.26742 C3.95612,31.23382 3.81562,31.21682 3.64342,31.21682 C3.11172,31.21682 2.71317,31.4042 2.44751,31.77945 C2.18148,32.15432 2.01876,32.56682 1.95899,33.01682 C1.95199,33.08442 1.94589,33.15182 1.94199,33.21945 C1.93799,33.28685 1.93599,33.35445 1.93599,33.42182 C1.93599,33.48942 1.93799,33.55682 1.94199,33.62445 C1.94599,33.69185 1.95199,33.75945 1.95899,33.82682 C2.01879,34.27682 2.18148,34.6892 2.44751,35.06445 C2.71317,35.43932 3.11172,35.62682 3.64342,35.62682 C3.81562,35.62682 3.95998,35.61002 4.07591,35.57612 C4.19196,35.54252 4.2949,35.50312 4.38474,35.45812 C4.42964,35.43552 4.47454,35.41142 4.51951,35.38512 C4.56441,35.35902 4.60931,35.33802 4.65427,35.32312 C4.68387,35.31612 4.71407,35.30822 4.74407,35.30052 C4.77387,35.29252 4.80387,35.28922 4.83387,35.28922 C4.94604,35.28922 5.03801,35.32462 5.109,35.39584 C5.1801,35.46704 5.21557,35.57022 5.21557,35.70522 L5.21557,35.75022 C5.21557,35.76542 5.21157,35.78032 5.20427,35.79522 C5.16677,35.96772 5.01498,36.12372 4.74932,36.26222 C4.48341,36.40109 4.1148,36.47059 3.643,36.47059 C2.73708,36.47059 2.06153,36.16084 1.6158,35.54047 C1.17058,34.92172 0.94772,34.21272 0.94772,33.41584 L0.94772,33.40454 L0.94809,33.40502 L0.94809,33.40502 Z M5.93436,33.40502 C5.93436,32.61565 6.16283,31.91052 6.6194,31.28615 C7.0761,30.6619 7.72372,30.3504 8.56238,30.3504 C9.40852,30.3504 10.05788,30.6619 10.51059,31.28615 C10.9638,31.91052 11.19015,32.61915 11.19015,33.41602 C11.19015,34.2129 10.9638,34.9219 10.51059,35.54065 C10.05788,36.16102 9.40852,36.47077 8.56238,36.47077 C7.72372,36.47077 7.0761,36.16102 6.6194,35.54065 C6.16283,34.9219 5.93436,34.2129 5.93436,33.41602 L5.93436,33.40472 L5.93436,33.40502 L5.93436,33.40502 Z M6.92263,33.41002 C6.92263,33.48512 6.92463,33.5564 6.92863,33.62402 C6.93263,33.69142 6.93863,33.75902 6.94563,33.8264 C6.99803,34.2764 7.14978,34.68878 7.40046,35.06402 C7.65127,35.4389 8.0386,35.6264 8.56281,35.6264 C9.08664,35.6264 9.47433,35.4389 9.72515,35.06402 C9.97596,34.68877 10.12769,34.2764 10.17998,33.8264 C10.18798,33.759 10.19308,33.6914 10.19658,33.62402 C10.20058,33.55642 10.20258,33.48902 10.20258,33.4214 C10.20258,33.354 10.20158,33.2864 10.19658,33.21902 C10.19258,33.15142 10.18758,33.08402 10.17998,33.0164 C10.12768,32.5664 9.97596,32.1539 9.72515,31.77902 C9.47433,31.40377 9.08664,31.2164 8.56281,31.2164 C8.0386,31.2164 7.65127,31.40377 7.40046,31.77902 C7.14978,32.1539 6.99805,32.5664 6.94563,33.0164 C6.93863,33.084 6.93253,33.1514 6.92863,33.21902 C6.92463,33.28642 6.92263,33.35402 6.92263,33.4214 L6.92263,33.4101 L6.92263,33.41002 L6.92263,33.41002 Z M15.77251,35.9414 L15.77251,32.58902 C15.77251,32.16877 15.65996,31.83502 15.43535,31.58765 C15.21075,31.34002 14.8963,31.2164 14.492,31.2164 C14.0952,31.2164 13.78462,31.34002 13.56001,31.58765 C13.33541,31.83502 13.22322,32.17265 13.22322,32.60003 L13.22322,35.9414 C13.22322,36.1139 13.17832,36.24502 13.08846,36.33503 C12.99866,36.42543 12.87871,36.4704 12.72909,36.4704 C12.5791,36.4704 12.45956,36.4254 12.36972,36.33503 C12.27992,36.24503 12.23495,36.11777 12.23495,35.95265 L12.23495,30.86765 C12.23495,30.71003 12.27985,30.58453 12.36972,30.49065 C12.45952,30.39715 12.5791,30.35003 12.72909,30.35003 C12.87871,30.35003 12.99862,30.39713 13.08846,30.49065 C13.17826,30.58455 13.22322,30.7139 13.22322,30.87903 L13.22322,31.04765 L13.24562,31.07005 C13.27562,31.04035 13.30542,31.00845 13.33542,30.97465 C13.36552,30.94065 13.39522,30.90525 13.42522,30.86765 C13.5525,30.74015 13.71733,30.62215 13.91936,30.5134 C14.12162,30.40453 14.39864,30.35003 14.75052,30.35003 C14.78772,30.35003 14.82512,30.35203 14.86271,30.35603 C14.90011,30.36003 14.93771,30.36203 14.97513,30.36203 C15.22943,30.39213 15.48024,30.48215 15.72756,30.63203 C15.97438,30.78215 16.19549,31.02565 16.39002,31.36328 C16.60714,31.04828 16.85795,30.80065 17.14234,30.62065 C17.42709,30.44065 17.78646,30.35065 18.22045,30.35065 C18.29545,30.35065 18.37393,30.35465 18.45642,30.36185 C18.53882,30.36885 18.62125,30.38445 18.7036,30.40685 C19.10016,30.48935 19.46515,30.7051 19.79831,31.0556 C20.13161,31.40423 20.29819,31.92935 20.29819,32.62697 L20.29819,35.94185 C20.29819,36.11435 20.25329,36.24548 20.16343,36.33548 C20.07363,36.42588 19.95367,36.47085 19.80406,36.47085 C19.65444,36.47085 19.53453,36.42585 19.44469,36.33548 C19.35479,36.24548 19.30992,36.11823 19.30992,35.9531 L19.30992,32.58948 C19.30992,32.16923 19.19774,31.83547 18.97313,31.5881 C18.74853,31.34047 18.43408,31.21685 18.02978,31.21685 C17.63298,31.21685 17.32202,31.34047 17.09741,31.5881 C16.87281,31.83547 16.76075,32.1731 16.76075,32.60048 L16.76075,35.94185 C16.76075,36.11435 16.71585,36.24548 16.62599,36.33548 C16.53619,36.42588 16.41624,36.47085 16.26662,36.47085 C16.11663,36.47085 15.99709,36.42585 15.90725,36.33548 C15.81745,36.24548 15.77248,36.11823 15.77248,35.9531 L15.77248,35.9419 L15.77251,35.9414 L15.77251,35.9414 Z M25.13874,35.9414 L25.13874,32.58902 C25.13874,32.16877 25.02632,31.83502 24.80171,31.58765 C24.57711,31.34002 24.26266,31.2164 23.85836,31.2164 C23.46144,31.2164 23.15085,31.34002 22.92624,31.58765 C22.70164,31.83502 22.58958,32.17265 22.58958,32.60003 L22.58958,35.9414 C22.58958,36.1139 22.54468,36.24502 22.45482,36.33503 C22.36502,36.42543 22.24507,36.4704 22.09545,36.4704 C21.94546,36.4704 21.82592,36.4254 21.73608,36.33503 C21.64618,36.24503 21.60131,36.11777 21.60131,35.95265 L21.60131,30.86765 C21.60131,30.71003 21.64621,30.58453 21.73608,30.49065 C21.82588,30.39715 21.94546,30.35003 22.09545,30.35003 C22.24507,30.35003 22.36498,30.39713 22.45482,30.49065 C22.54462,30.58455 22.58958,30.7139 22.58958,30.87903 L22.58958,31.04765 L22.61178,31.07005 C22.64178,31.04035 22.67158,31.00845 22.70158,30.97465 C22.73158,30.94065 22.76138,30.90525 22.79138,30.86765 C22.91878,30.74015 23.08362,30.62215 23.28552,30.5134 C23.48791,30.40453 23.76481,30.35003 24.11681,30.35003 C24.15381,30.35003 24.19141,30.35203 24.22887,30.35603 C24.26637,30.36003 24.30387,30.36203 24.34142,30.36203 C24.59572,30.39213 24.84653,30.48215 25.09372,30.63203 C25.34067,30.78215 25.56165,31.02565 25.75619,31.36328 C25.97343,31.04828 26.22412,30.80065 26.50863,30.62065 C26.79325,30.44065 27.15262,30.35065 27.58674,30.35065 C27.66164,30.35065 27.74022,30.35465 27.82258,30.36185 C27.90498,30.36885 27.98741,30.38445 28.06989,30.40685 C28.46632,30.48935 28.83143,30.7051 29.1646,31.0556 C29.49776,31.40423 29.66435,31.92935 29.66435,32.62697 L29.66435,35.94185 C29.66435,36.11435 29.61945,36.24548 29.52959,36.33548 C29.43979,36.42588 29.31983,36.47085 29.17022,36.47085 C29.0206,36.47085 28.90069,36.42585 28.81085,36.33548 C28.72105,36.24548 28.67608,36.11823 28.67608,35.9531 L28.67608,32.58948 C28.67608,32.16923 28.56403,31.83547 28.33942,31.5881 C28.11481,31.34047 27.80037,31.21685 27.39607,31.21685 C26.99914,31.21685 26.68831,31.34047 26.4637,31.5881 C26.2391,31.83547 26.12691,32.1731 26.12691,32.60048 L26.12691,35.94185 C26.12691,36.11435 26.08201,36.24548 25.99215,36.33548 C25.90235,36.42588 25.7824,36.47085 25.63278,36.47085 C25.4828,36.47085 25.36325,36.42585 25.27341,36.33548 C25.18361,36.24548 25.13864,36.11823 25.13864,35.9531 L25.13864,35.9419 L25.13874,35.9414 L25.13874,35.9414 Z M35.90891,30.82265 L35.90891,35.9864 C35.90891,36.12877 35.87501,36.23577 35.8077,36.30702 C35.7402,36.37822 35.66558,36.4254 35.5831,36.44765 C35.5605,36.45465 35.5382,36.46075 35.5156,36.46465 C35.4932,36.46865 35.4707,36.47065 35.4483,36.47065 C35.433,36.47065 35.4165,36.46865 35.3978,36.46465 C35.379,36.46065 35.3585,36.45865 35.3359,36.45865 C35.2461,36.43605 35.1657,36.38915 35.09469,36.31802 C35.02359,36.24672 34.98788,36.13977 34.98788,35.99727 L34.98788,35.56965 L34.96548,35.56965 C34.75571,35.87715 34.51239,36.10427 34.23537,36.25027 C33.95849,36.39665 33.65888,36.47002 33.33695,36.47002 C32.49829,36.47002 31.85068,36.16027 31.3941,35.5399 C30.9374,34.92115 30.70893,34.21215 30.70893,33.41527 C30.70893,32.6184 30.9374,31.90977 31.3941,31.2854 C31.85068,30.66115 32.49829,30.34965 33.33695,30.34965 C33.68109,30.34965 33.9807,30.41905 34.23537,30.55802 C34.48968,30.69653 34.73313,30.89353 34.96548,31.14865 L34.98788,31.13745 L34.98788,30.82245 C34.98788,30.68745 35.02358,30.58257 35.09469,30.50745 C35.16569,30.43235 35.24606,30.38383 35.3359,30.3612 C35.3585,30.3612 35.379,30.3602 35.3978,30.3552 C35.4165,30.3512 35.4331,30.3492 35.4483,30.3492 C35.4707,30.3492 35.4932,30.3512 35.5156,30.3552 C35.5382,30.3592 35.5605,30.3652 35.5831,30.3722 C35.6656,30.3946 35.7402,30.4435 35.8077,30.51858 C35.875,30.59328 35.90891,30.69858 35.90891,30.83358 L35.90891,30.82228 L35.90891,30.82265 L35.90891,30.82265 Z M31.69728,33.41002 C31.69728,33.48512 31.69928,33.5564 31.70328,33.62402 C31.70728,33.69142 31.71328,33.75902 31.72028,33.8264 C31.77268,34.2764 31.92442,34.68878 32.17523,35.06402 C32.42591,35.4389 32.81323,35.6264 33.33745,35.6264 C33.86128,35.6264 34.24897,35.4389 34.49978,35.06402 C34.75059,34.68877 34.90233,34.2764 34.95462,33.8264 C34.96262,33.759 34.96772,33.6914 34.97142,33.62402 C34.97542,33.55642 34.97742,33.48902 34.97742,33.4214 C34.97742,33.354 34.97642,33.2864 34.97142,33.21902 C34.96742,33.15142 34.96242,33.08402 34.95462,33.0164 C34.90232,32.5664 34.75059,32.1539 34.49978,31.77902 C34.24897,31.40377 33.86128,31.2164 33.33745,31.2164 C32.81323,31.2164 32.42591,31.40377 32.17523,31.77902 C31.92442,32.1539 31.77268,32.5664 31.72028,33.0164 C31.71328,33.084 31.70718,33.1514 31.70328,33.21902 C31.69928,33.28642 31.69728,33.35402 31.69728,33.4214 L31.69728,33.4101 L31.69728,33.41002 L31.69728,33.41002 Z M37.21163,35.9414 L37.21163,30.86765 C37.21163,30.71003 37.25653,30.58453 37.34639,30.49065 C37.43619,30.39715 37.55577,30.35003 37.70576,30.35003 C37.85537,30.35003 37.97529,30.39713 38.06513,30.49065 C38.15503,30.58455 38.1999,30.7139 38.1999,30.87903 L38.1999,31.10403 L38.2223,31.12643 C38.41684,30.88655 38.64144,30.70468 38.89612,30.58068 C39.1508,30.45706 39.40897,30.38406 39.67101,30.36143 C39.70851,30.35443 39.74391,30.35013 39.77758,30.35013 L39.87298,30.35013 C39.94798,30.35013 40.02646,30.35413 40.10894,30.36143 C40.19134,30.36843 40.27378,30.38403 40.35613,30.40643 C40.75269,30.48893 41.11767,30.70468 41.45084,31.05518 C41.78413,31.4038 41.95071,31.92893 41.95071,32.62655 L41.95071,35.94143 C41.95071,36.11393 41.90581,36.24505 41.81595,36.33506 C41.72615,36.42546 41.6062,36.47043 41.45658,36.47043 C41.30697,36.47043 41.18705,36.42543 41.09721,36.33506 C41.00731,36.24506 40.96244,36.1178 40.96244,35.95268 L40.96244,32.67906 C40.96244,32.2138 40.83891,31.86518 40.59172,31.63268 C40.34477,31.4003 40.07138,31.2653 39.77216,31.22768 C39.74216,31.22768 39.71026,31.22668 39.67676,31.22168 C39.64286,31.21768 39.61086,31.21568 39.58116,31.21568 C39.55106,31.21568 39.51926,31.21768 39.48576,31.22168 C39.45226,31.22568 39.42036,31.22768 39.39036,31.22768 C39.09077,31.26528 38.81762,31.4003 38.57043,31.63268 C38.32348,31.86518 38.20008,32.21768 38.20008,32.69005 L38.20008,35.94143 C38.20008,36.11393 38.15518,36.24505 38.06531,36.33505 C37.97551,36.42545 37.85555,36.47043 37.70594,36.47043 C37.55595,36.47043 37.43641,36.42543 37.34657,36.33505 C37.25677,36.24505 37.21181,36.1178 37.21181,35.95268 L37.21181,35.94138 L37.21163,35.9414 L37.21163,35.9414 Z M47.16183,35.9414 L47.16183,35.64902 L47.13923,35.64902 C46.9971,35.92652 46.79471,36.13265 46.53291,36.26765 C46.27087,36.40265 45.9412,36.4704 45.54464,36.4704 C44.73606,36.4704 44.10904,36.16065 43.66332,35.54027 C43.21797,34.92152 42.99511,34.21252 42.99511,33.41565 C42.99511,32.61877 43.21797,31.91015 43.66332,31.28577 C44.10904,30.66152 44.73606,30.35002 45.54464,30.35002 C45.88892,30.35002 46.18452,30.41942 46.43184,30.5584 C46.67866,30.6969 46.87357,30.8489 47.01582,31.01402 C47.03802,31.03642 47.06072,31.06082 47.08292,31.08702 C47.10572,31.11332 47.12432,31.13762 47.13922,31.16002 L47.16182,31.14882 L47.16182,28.2462 C47.16182,28.08882 47.20672,27.96308 47.29659,27.86945 C47.38639,27.77555 47.5061,27.72883 47.65596,27.72883 C47.8057,27.72883 47.92549,27.77563 48.01533,27.86945 C48.10513,27.96305 48.15009,28.09233 48.15009,28.25745 L48.15009,35.9412 C48.15009,36.1137 48.10519,36.24482 48.01533,36.33483 C47.92553,36.42523 47.8057,36.4702 47.65596,36.4702 C47.5061,36.4702 47.38643,36.4252 47.29659,36.33483 C47.20679,36.24483 47.16182,36.11757 47.16182,35.95245 L47.16182,35.94115 L47.16183,35.9414 L47.16183,35.9414 Z M47.26266,33.41002 C47.26266,33.35012 47.26166,33.2864 47.25666,33.21902 C47.25266,33.15142 47.24766,33.08402 47.24006,33.0164 C47.18766,32.5664 47.03591,32.1539 46.7851,31.77902 C46.53441,31.40377 46.14672,31.2164 45.62289,31.2164 C45.09867,31.2164 44.71135,31.40377 44.46054,31.77902 C44.20973,32.1539 44.058,32.5664 44.00572,33.0164 C43.99772,33.084 43.99262,33.1514 43.98872,33.21902 C43.98472,33.28642 43.98272,33.35402 43.98272,33.4214 C43.98272,33.489 43.98472,33.5564 43.98872,33.62402 C43.99272,33.69142 43.99872,33.75902 44.00572,33.8264 C44.05802,34.2764 44.20973,34.68878 44.46054,35.06402 C44.71135,35.4389 45.09867,35.6264 45.62289,35.6264 C46.14672,35.6264 46.53441,35.4389 46.7851,35.06402 C47.03591,34.68877 47.18765,34.2764 47.24006,33.8264 C47.24706,33.759 47.25316,33.6914 47.25666,33.62402 C47.26066,33.55642 47.26266,33.48902 47.26266,33.4214 L47.26266,33.4101 L47.26266,33.41002 L47.26266,33.41002 Z" id="DM"></path>
                <path d="M6.08397,5.9419 L7.88931,5.9419 L7.88931,4.1334 L6.08397,4.1334 L6.08397,5.9419 L6.08397,5.9419 L6.08397,5.9419 Z M6.08397,6.84403 L6.08397,7.88153 C6.08397,8.4024 5.8968,8.85028 5.52045,9.2209 C5.14586,9.59403 4.69277,9.7794 4.16644,9.7794 C3.63837,9.7794 3.18704,9.59403 2.81281,9.21878 C2.43822,8.8439 2.25329,8.38965 2.25329,7.85853 C2.25329,7.33765 2.43822,6.88765 2.81281,6.50853 C3.18704,6.1294 3.63201,5.9419 4.14773,5.9419 L5.18342,5.9419 L5.18342,4.1334 L4.14773,4.1334 C3.63201,4.1334 3.18704,3.94603 2.81281,3.5669 C2.43822,3.18777 2.25329,2.73777 2.25329,2.21265 C2.25329,1.68365 2.43822,1.23153 2.81281,0.85628 C3.18704,0.4814 3.63837,0.29602 4.16644,0.29602 C4.69277,0.29602 5.14586,0.4814 5.52045,0.85453 C5.8968,1.22515 6.08397,1.67303 6.08397,2.1939 L6.08397,3.23127 L7.88931,3.23127 L7.88931,2.1939 C7.88931,1.67303 8.07635,1.22515 8.45269,0.85453 C8.8273,0.4814 9.28037,0.29602 9.8067,0.29602 C10.33914,0.29602 10.79261,0.4814 11.16258,0.85628 C11.53493,1.23153 11.71997,1.68365 11.71997,2.21265 C11.71997,2.73778 11.53493,3.18777 11.16258,3.5669 C10.7926,3.94603 10.34551,4.1334 9.82554,4.1334 L8.78985,4.1334 L8.78985,5.9419 L9.82554,5.9419 C10.34551,5.9419 10.7926,6.1294 11.16258,6.50853 C11.53493,6.88765 11.71997,7.33765 11.71997,7.85853 C11.71997,8.38965 11.53493,8.8439 11.16258,9.21878 C10.7926,9.59403 10.33914,9.7794 9.8067,9.7794 C9.28037,9.7794 8.8273,9.59403 8.45269,9.2209 C8.07635,8.85028 7.88931,8.4024 7.88931,7.88153 L7.88931,6.84403 L6.08397,6.84403 L6.08397,6.84403 L6.08397,6.84403 Z M5.18341,3.23127 L5.18341,2.21265 C5.18341,1.93128 5.08361,1.69178 4.88419,1.49403 C4.68641,1.29815 4.44521,1.19815 4.16644,1.19815 C3.88981,1.19815 3.65073,1.29815 3.45307,1.49403 C3.25354,1.69178 3.15385,1.93128 3.15385,2.21265 C3.15385,2.4919 3.25355,2.73353 3.45307,2.93153 C3.65073,3.1314 3.89192,3.23127 4.1707,3.23127 L5.18342,3.23127 L5.18341,3.23127 L5.18341,3.23127 Z M5.18341,6.84403 L4.17069,6.84403 C3.89192,6.84403 3.65073,6.94403 3.45307,7.1439 C3.25354,7.3419 3.15385,7.5814 3.15385,7.85853 C3.15385,8.13778 3.25355,8.3794 3.45307,8.57715 C3.65073,8.77728 3.89192,8.87727 4.17069,8.87727 C4.44733,8.87727 4.68641,8.77727 4.88419,8.57715 C5.08359,8.3794 5.18341,8.1399 5.18341,7.86277 L5.18341,6.84402 L5.18341,6.84403 L5.18341,6.84403 Z M8.78985,3.23127 L9.8067,3.23127 C10.08334,3.23127 10.32242,3.13137 10.5202,2.93153 C10.71973,2.73353 10.81943,2.4919 10.81943,2.21265 C10.81943,1.93128 10.71973,1.69178 10.52407,1.49403 C10.32666,1.29815 10.08758,1.19815 9.8067,1.19815 C9.52806,1.19815 9.28673,1.29815 9.08908,1.49403 C8.88956,1.69178 8.78985,1.93128 8.78985,2.21265 L8.78985,3.23127 L8.78985,3.23127 L8.78985,3.23127 Z M8.78985,6.84403 L8.78985,7.86278 C8.78985,8.1399 8.88955,8.3794 9.08908,8.57715 C9.28673,8.77728 9.52806,8.87728 9.8067,8.87728 C10.08758,8.87728 10.32666,8.77728 10.52407,8.57715 C10.71973,8.3794 10.81943,8.13778 10.81943,7.85853 C10.81943,7.5814 10.71973,7.3419 10.5202,7.1439 C10.32242,6.94403 10.08334,6.84403 9.8067,6.84403 L8.78985,6.84403 L8.78985,6.84403 L8.78985,6.84403 Z" id="UL"></path>
            </g>
        </g>
        <g id="Key" transform="translate(162.000000, 25.000000)">
            <g id="Back" stroke-width="0.62503177">
                <path d="M56.8263342,0.778 L37.926559,0.778 L24.7867152,0.778 L5.88693987,0.778 C2.91697518,0.778 0.577003,3.4779679 0.577003,6.89792724 L0.577003,43.9774864 C0.577003,47.3974457 3.00697411,50.0974136 5.88693987,50.0974136 L24.7867152,50.0974136 L37.926559,50.0974136 L56.8263342,50.0974136 C59.7962989,50.0974136 62.1362711,47.3974457 62.1362711,43.9774864 L62.1362711,6.89792724 C62.1362711,3.4779679 59.7063,0.778 56.8263342,0.778 L56.8263342,0.778 L56.8263342,0.778 Z" id="Frame" stroke="#96938E"></path>
                <path d="M7.776917,7.077935 L54.936357,7.077935 L54.936357,43.797498 L7.776917,43.797498 L7.776917,7.077935 L7.776917,7.077935 L7.776917,7.077935 Z M31.356637,43.797498 L31.356637,7.077935 L31.356637,43.797498 L31.356637,43.797498 Z M7.776917,25.437717 L54.936357,25.437717 L7.776917,25.437717 L7.776917,25.437717 Z" id="Grid" stroke="#BDBFC1"></path>
            </g>
            <g id="Front" transform="translate(7.000000, 8.000000)" fill="#000000">
                <path d="M0.93295,33.40502 C0.93295,32.61565 1.15581,31.91052 1.60116,31.28615 C2.04687,30.6619 2.72244,30.3504 3.62823,30.3504 C4.13759,30.3504 4.5324,30.4273 4.81316,30.57927 C5.09404,30.73127 5.23442,30.90915 5.23442,31.11365 L5.23442,31.13065 L5.23442,31.14945 C5.22642,31.24695 5.18562,31.33507 5.11064,31.41382 C5.03604,31.49242 4.94231,31.53182 4.83013,31.53182 C4.77013,31.53182 4.71596,31.52482 4.66716,31.50942 C4.61866,31.49412 4.57156,31.47932 4.52666,31.46442 C4.49696,31.44912 4.46686,31.43432 4.43686,31.41942 C4.40706,31.40422 4.37326,31.38932 4.33603,31.37442 C4.25363,31.33692 4.15822,31.30102 4.04953,31.26742 C3.94097,31.23382 3.8006,31.21682 3.62827,31.21682 C3.0967,31.21682 2.69803,31.4042 2.43236,31.77945 C2.16646,32.15432 2.00374,32.56682 1.94397,33.01682 C1.93697,33.08442 1.93087,33.15182 1.92697,33.21945 C1.92297,33.28685 1.92097,33.35445 1.92097,33.42182 C1.92097,33.48942 1.92297,33.55682 1.92697,33.62445 C1.93097,33.69185 1.93697,33.75945 1.94397,33.82682 C2.00377,34.27682 2.16646,34.6892 2.43236,35.06445 C2.69803,35.43932 3.0967,35.62682 3.62827,35.62682 C3.8006,35.62682 3.94485,35.61002 4.06089,35.57612 C4.17694,35.54252 4.27988,35.50312 4.36972,35.45812 C4.41462,35.43552 4.45962,35.41142 4.50449,35.38512 C4.54939,35.35902 4.59429,35.33802 4.63925,35.32312 C4.66905,35.31612 4.69905,35.30822 4.72905,35.30052 C4.75885,35.29252 4.78885,35.28922 4.81895,35.28922 C4.931,35.28922 5.02297,35.32462 5.0941,35.39584 C5.1652,35.46704 5.20053,35.57022 5.20053,35.70522 L5.20053,35.75022 C5.20053,35.76542 5.19653,35.78032 5.18933,35.79522 C5.15193,35.96772 5.00016,36.12372 4.7345,36.26222 C4.46847,36.40109 4.09999,36.47059 3.62806,36.47059 C2.72228,36.47059 2.04671,36.16084 1.60099,35.54047 C1.15564,34.92172 0.93278,34.21272 0.93278,33.41584 L0.93278,33.40454 L0.93295,33.40502 L0.93295,33.40502 Z M5.91922,33.40502 C5.91922,32.61565 6.14769,31.91052 6.6044,31.28615 C7.0611,30.6619 7.70871,30.3504 8.54737,30.3504 C9.39339,30.3504 10.04288,30.6619 10.49558,31.28615 C10.94867,31.91052 11.17502,32.61915 11.17502,33.41602 C11.17502,34.2129 10.94867,34.9219 10.49558,35.54065 C10.04288,36.16102 9.39339,36.47077 8.54737,36.47077 C7.70871,36.47077 7.06109,36.16102 6.6044,35.54065 C6.14769,34.9219 5.91922,34.2129 5.91922,33.41602 L5.91922,33.40472 L5.91922,33.40502 L5.91922,33.40502 Z M6.90749,33.41002 C6.90749,33.48512 6.90949,33.5564 6.91349,33.62402 C6.91749,33.69142 6.92349,33.75902 6.93049,33.8264 C6.98279,34.2764 7.13451,34.68878 7.38532,35.06402 C7.63613,35.4389 8.02345,35.6264 8.54766,35.6264 C9.0715,35.6264 9.45919,35.4389 9.70988,35.06402 C9.96069,34.68877 10.11242,34.2764 10.16483,33.8264 C10.17183,33.759 10.17793,33.6914 10.18143,33.62402 C10.18543,33.55642 10.18643,33.48902 10.18643,33.4214 C10.18643,33.354 10.18544,33.2864 10.18143,33.21902 C10.17743,33.15142 10.17243,33.08402 10.16483,33.0164 C10.11243,32.5664 9.96069,32.1539 9.70988,31.77902 C9.45919,31.40377 9.0715,31.2164 8.54766,31.2164 C8.02345,31.2164 7.63613,31.40377 7.38532,31.77902 C7.13451,32.1539 6.98277,32.5664 6.93049,33.0164 C6.92349,33.084 6.91739,33.1514 6.91349,33.21902 C6.90949,33.28642 6.90749,33.35402 6.90749,33.4214 L6.90749,33.4101 L6.90749,33.41002 L6.90749,33.41002 Z M15.75738,35.9414 L15.75738,32.58902 C15.75738,32.16877 15.64495,31.83502 15.42035,31.58765 C15.19574,31.34002 14.88129,31.2164 14.477,31.2164 C14.08006,31.2164 13.76948,31.34002 13.54488,31.58765 C13.32027,31.83502 13.20822,32.17265 13.20822,32.60003 L13.20822,35.9414 C13.20822,36.1139 13.16332,36.24502 13.07345,36.33503 C12.98365,36.42543 12.86369,36.4704 12.71408,36.4704 C12.56409,36.4704 12.44455,36.4254 12.35471,36.33503 C12.26491,36.24503 12.21995,36.11777 12.21995,35.95265 L12.21995,30.86765 C12.21995,30.71003 12.26485,30.58453 12.35471,30.49065 C12.44451,30.39715 12.56409,30.35003 12.71408,30.35003 C12.86369,30.35003 12.98361,30.39713 13.07345,30.49065 C13.16325,30.58455 13.20822,30.7139 13.20822,30.87903 L13.20822,31.04765 L13.23052,31.07005 C13.26052,31.04035 13.29032,31.00845 13.32032,30.97465 C13.35032,30.94065 13.38012,30.90525 13.41012,30.86765 C13.53752,30.74015 13.70236,30.62215 13.90426,30.5134 C14.10665,30.40453 14.38354,30.35003 14.73555,30.35003 C14.77255,30.35003 14.81025,30.35203 14.84761,30.35603 C14.88511,30.36003 14.92261,30.36203 14.96016,30.36203 C15.21447,30.39213 15.46528,30.48215 15.71246,30.63203 C15.95941,30.78215 16.1804,31.02565 16.37493,31.36328 C16.59217,31.04828 16.84299,30.80065 17.12737,30.62065 C17.41212,30.44065 17.77149,30.35065 18.20548,30.35065 C18.28048,30.35065 18.35896,30.35465 18.44132,30.36185 C18.52372,30.36885 18.60615,30.38445 18.68864,30.40685 C19.08506,30.48935 19.45017,30.7051 19.78334,31.0556 C20.11651,31.40423 20.2831,31.92935 20.2831,32.62697 L20.2831,35.94185 C20.2831,36.11435 20.2382,36.24548 20.14833,36.33548 C20.05853,36.42588 19.93857,36.47085 19.78896,36.47085 C19.63934,36.47085 19.51943,36.42585 19.42959,36.33548 C19.33979,36.24548 19.29483,36.11823 19.29483,35.9531 L19.29483,32.58948 C19.29483,32.16923 19.18277,31.83547 18.95816,31.5881 C18.73356,31.34047 18.41911,31.21685 18.01482,31.21685 C17.61788,31.21685 17.30705,31.34047 17.08245,31.5881 C16.85784,31.83547 16.74566,32.1731 16.74566,32.60048 L16.74566,35.94185 C16.74566,36.11435 16.70076,36.24548 16.61089,36.33548 C16.52109,36.42588 16.40114,36.47085 16.25152,36.47085 C16.10153,36.47085 15.98199,36.42585 15.89215,36.33548 C15.80235,36.24548 15.75739,36.11823 15.75739,35.9531 L15.75739,35.9419 L15.75738,35.9414 L15.75738,35.9414 Z M25.12375,35.9414 L25.12375,32.58902 C25.12375,32.16877 25.01118,31.83502 24.78659,31.58765 C24.56198,31.34002 24.24753,31.2164 23.84324,31.2164 C23.44643,31.2164 23.13584,31.34002 22.91124,31.58765 C22.68663,31.83502 22.57445,32.17265 22.57445,32.60003 L22.57445,35.9414 C22.57445,36.1139 22.52955,36.24502 22.43968,36.33503 C22.34988,36.42543 22.22993,36.4704 22.08031,36.4704 C21.93032,36.4704 21.81078,36.4254 21.72094,36.33503 C21.63114,36.24503 21.58618,36.11777 21.58618,35.95265 L21.58618,30.86765 C21.58618,30.71003 21.63108,30.58453 21.72094,30.49065 C21.81074,30.39715 21.93032,30.35003 22.08031,30.35003 C22.22993,30.35003 22.34984,30.39713 22.43968,30.49065 C22.52948,30.58455 22.57445,30.7139 22.57445,30.87903 L22.57445,31.04765 L22.59685,31.07005 C22.62685,31.04035 22.65665,31.00845 22.68665,30.97465 C22.71675,30.94065 22.74645,30.90525 22.77645,30.86765 C22.90373,30.74015 23.06856,30.62215 23.27059,30.5134 C23.47285,30.40453 23.74987,30.35003 24.10175,30.35003 C24.13895,30.35003 24.17635,30.35203 24.21394,30.35603 C24.25134,30.36003 24.28894,30.36203 24.32636,30.36203 C24.58067,30.39213 24.83148,30.48215 25.07879,30.63203 C25.32561,30.78215 25.54672,31.02565 25.74126,31.36328 C25.95838,31.04828 26.2092,30.80065 26.49358,30.62065 C26.77832,30.44065 27.13769,30.35065 27.57168,30.35065 C27.64668,30.35065 27.72516,30.35465 27.80765,30.36185 C27.88995,30.36885 27.97249,30.38445 28.05485,30.40685 C28.4514,30.48935 28.81638,30.7051 29.14955,31.0556 C29.48284,31.40423 29.64943,31.92935 29.64943,32.62697 L29.64943,35.94185 C29.64943,36.11435 29.60453,36.24548 29.51466,36.33548 C29.42486,36.42588 29.3049,36.47085 29.15529,36.47085 C29.00567,36.47085 28.88576,36.42585 28.79592,36.33548 C28.70612,36.24548 28.66115,36.11823 28.66115,35.9531 L28.66115,32.58948 C28.66115,32.16923 28.54897,31.83547 28.32436,31.5881 C28.09976,31.34047 27.78531,31.21685 27.38101,31.21685 C26.98421,31.21685 26.67325,31.34047 26.44865,31.5881 C26.22404,31.83547 26.11199,32.1731 26.11199,32.60048 L26.11199,35.94185 C26.11199,36.11435 26.06709,36.24548 25.97722,36.33548 C25.88742,36.42588 25.76747,36.47085 25.61785,36.47085 C25.46786,36.47085 25.34832,36.42585 25.25848,36.33548 C25.16868,36.24548 25.12372,36.11823 25.12372,35.9531 L25.12372,35.9419 L25.12375,35.9414 L25.12375,35.9414 Z M35.89389,30.82265 L35.89389,35.9864 C35.89389,36.12877 35.85999,36.23577 35.7927,36.30702 C35.7252,36.37822 35.65044,36.4254 35.56809,36.44765 C35.54549,36.45465 35.52319,36.46075 35.50059,36.46465 C35.47819,36.46865 35.45569,36.47065 35.43329,36.47065 C35.41799,36.47065 35.40149,36.46865 35.38279,36.46465 C35.36389,36.46065 35.34349,36.45865 35.32089,36.45865 C35.23109,36.43605 35.15069,36.38915 35.07956,36.31802 C35.00856,36.24672 34.97275,36.13977 34.97275,35.99727 L34.97275,35.56965 L34.95045,35.56965 C34.7407,35.87715 34.49724,36.10427 34.22036,36.25027 C33.94334,36.39665 33.64374,36.47002 33.32193,36.47002 C32.48327,36.47002 31.83565,36.16027 31.37895,35.5399 C30.92238,34.92115 30.6939,34.21215 30.6939,33.41527 C30.6939,32.6184 30.92238,31.90977 31.37895,31.2854 C31.83566,30.66115 32.48327,30.34965 33.32193,30.34965 C33.66608,30.34965 33.96567,30.41905 34.22036,30.55802 C34.47466,30.69653 34.71799,30.89353 34.95045,31.14865 L34.97275,31.13745 L34.97275,30.82245 C34.97275,30.68745 35.00855,30.58257 35.07956,30.50745 C35.15066,30.43235 35.23105,30.38383 35.32089,30.3612 C35.34349,30.3612 35.36389,30.3602 35.38279,30.3552 C35.40159,30.3512 35.41809,30.3492 35.43329,30.3492 C35.45569,30.3492 35.47819,30.3512 35.50059,30.3552 C35.52319,30.3592 35.54549,30.3652 35.56809,30.3722 C35.65039,30.3946 35.72519,30.4435 35.7927,30.51858 C35.86,30.59328 35.89389,30.69858 35.89389,30.83358 L35.89389,30.82228 L35.89389,30.82265 L35.89389,30.82265 Z M31.68226,33.41002 C31.68226,33.48512 31.68426,33.5564 31.68826,33.62402 C31.69226,33.69142 31.69826,33.75902 31.70526,33.8264 C31.75756,34.2764 31.9094,34.68878 32.16009,35.06402 C32.4109,35.4389 32.79823,35.6264 33.32243,35.6264 C33.84626,35.6264 34.23396,35.4389 34.48477,35.06402 C34.73546,34.68877 34.88719,34.2764 34.9396,33.8264 C34.9476,33.759 34.9527,33.6914 34.9562,33.62402 C34.9602,33.55642 34.9622,33.48902 34.9622,33.4214 C34.9622,33.354 34.9612,33.2864 34.9562,33.21902 C34.9522,33.15142 34.9472,33.08402 34.9396,33.0164 C34.8872,32.5664 34.73546,32.1539 34.48477,31.77902 C34.23396,31.40377 33.84626,31.2164 33.32243,31.2164 C32.79823,31.2164 32.4109,31.40377 32.16009,31.77902 C31.9094,32.1539 31.75755,32.5664 31.70526,33.0164 C31.69726,33.084 31.69216,33.1514 31.68826,33.21902 C31.68426,33.28642 31.68226,33.35402 31.68226,33.4214 L31.68226,33.4101 L31.68226,33.41002 L31.68226,33.41002 Z M37.19661,35.9414 L37.19661,30.86765 C37.19661,30.71003 37.24151,30.58453 37.33137,30.49065 C37.42127,30.39715 37.54076,30.35003 37.69075,30.35003 C37.84036,30.35003 37.96027,30.39713 38.05012,30.49065 C38.14002,30.58455 38.18489,30.7139 38.18489,30.87903 L38.18489,31.10403 L38.20709,31.12643 C38.40163,30.88655 38.62624,30.70468 38.88092,30.58068 C39.1356,30.45706 39.39377,30.38406 39.65593,30.36143 C39.69333,30.35443 39.72883,30.35013 39.76237,30.35013 L39.85797,30.35013 C39.93287,30.35013 40.01145,30.35413 40.09382,30.36143 C40.17622,30.36843 40.25865,30.38403 40.34114,30.40643 C40.73756,30.48893 41.10267,30.70468 41.43584,31.05518 C41.76901,31.4038 41.9356,31.92893 41.9356,32.62655 L41.9356,35.94143 C41.9356,36.11393 41.8907,36.24505 41.80083,36.33506 C41.71103,36.42546 41.59107,36.47043 41.44146,36.47043 C41.29184,36.47043 41.17192,36.42543 41.08208,36.33506 C40.99228,36.24506 40.94731,36.1178 40.94731,35.95268 L40.94731,32.67906 C40.94731,32.2138 40.82391,31.86518 40.57671,31.63268 C40.32978,31.4003 40.05637,31.2653 39.75715,31.22768 C39.72705,31.22768 39.69525,31.22668 39.66155,31.22168 C39.62765,31.21768 39.59575,31.21568 39.56615,31.21568 C39.53605,31.21568 39.50425,31.21768 39.47075,31.22168 C39.43715,31.22568 39.40525,31.22768 39.37515,31.22768 C39.07555,31.26528 38.80253,31.4003 38.55533,31.63268 C38.30839,31.86518 38.18498,32.21768 38.18498,32.69005 L38.18498,35.94143 C38.18498,36.11393 38.14008,36.24505 38.05021,36.33505 C37.96041,36.42545 37.84046,36.47043 37.69084,36.47043 C37.54086,36.47043 37.42132,36.42543 37.33147,36.33505 C37.24167,36.24505 37.19671,36.1178 37.19671,35.95268 L37.19671,35.94138 L37.19661,35.9414 L37.19661,35.9414 Z M47.14683,35.9414 L47.14683,35.64902 L47.12423,35.64902 C46.98197,35.92652 46.77971,36.13265 46.51792,36.26765 C46.25588,36.40265 45.9262,36.4704 45.52965,36.4704 C44.72106,36.4704 44.09391,36.16065 43.64831,35.54027 C43.20297,34.92152 42.98011,34.21252 42.98011,33.41565 C42.98011,32.61877 43.20297,31.91015 43.64831,31.28577 C44.09391,30.66152 44.72106,30.35002 45.52965,30.35002 C45.87379,30.35002 46.16953,30.41942 46.41671,30.5584 C46.66366,30.6969 46.85857,30.8489 47.00069,31.01402 C47.02309,31.03642 47.04559,31.06082 47.06799,31.08702 C47.09059,31.11332 47.10939,31.13762 47.12429,31.16002 L47.14689,31.14882 L47.14689,28.2462 C47.14689,28.08882 47.19179,27.96308 47.28165,27.86945 C47.37145,27.77555 47.49103,27.72883 47.64102,27.72883 C47.79064,27.72883 47.91055,27.77563 48.00039,27.86945 C48.09029,27.96305 48.13516,28.09233 48.13516,28.25745 L48.13516,35.9412 C48.13516,36.1137 48.09026,36.24482 48.00039,36.33483 C47.91059,36.42523 47.79064,36.4702 47.64102,36.4702 C47.49103,36.4702 47.37149,36.4252 47.28165,36.33483 C47.19185,36.24483 47.14689,36.11757 47.14689,35.95245 L47.14689,35.94115 L47.14683,35.9414 L47.14683,35.9414 Z M47.24765,33.41002 C47.24765,33.35012 47.24665,33.2864 47.24165,33.21902 C47.23765,33.15142 47.23265,33.08402 47.22485,33.0164 C47.17255,32.5664 47.02083,32.1539 46.77003,31.77902 C46.51921,31.40377 46.13151,31.2164 45.60768,31.2164 C45.08348,31.2164 44.69614,31.40377 44.44546,31.77902 C44.19465,32.1539 44.04292,32.5664 43.99051,33.0164 C43.98351,33.084 43.97741,33.1514 43.97351,33.21902 C43.96951,33.28642 43.96851,33.35402 43.96851,33.4214 C43.96851,33.489 43.97051,33.5564 43.97351,33.62402 C43.97751,33.69142 43.98351,33.75902 43.99051,33.8264 C44.04291,34.2764 44.19465,34.68878 44.44546,35.06402 C44.69614,35.4389 45.08348,35.6264 45.60768,35.6264 C46.13151,35.6264 46.51921,35.4389 46.77003,35.06402 C47.02083,34.68877 47.17256,34.2764 47.22485,33.8264 C47.23185,33.759 47.23795,33.6914 47.24165,33.62402 C47.24565,33.55642 47.24765,33.48902 47.24765,33.4214 L47.24765,33.4101 L47.24765,33.41002 L47.24765,33.41002 Z" id="DM"></path>
                <path d="M41.72269,5.9419 L43.52803,5.9419 L43.52803,4.1334 L41.72269,4.1334 L41.72269,5.9419 L41.72269,5.9419 L41.72269,5.9419 Z M41.72269,6.84403 L41.72269,7.88153 C41.72269,8.4024 41.53552,8.85028 41.15917,9.2209 C40.78458,9.59403 40.3315,9.7794 39.80517,9.7794 C39.2771,9.7794 38.82577,9.59403 38.45154,9.21878 C38.07695,8.8439 37.89202,8.38965 37.89202,7.85853 C37.89202,7.33765 38.07695,6.88765 38.45154,6.50853 C38.82577,6.1294 39.27073,5.9419 39.78646,5.9419 L40.82214,5.9419 L40.82214,4.1334 L39.78646,4.1334 C39.27073,4.1334 38.82576,3.94603 38.45154,3.5669 C38.07695,3.18777 37.89202,2.73777 37.89202,2.21265 C37.89202,1.68365 38.07695,1.23153 38.45154,0.85628 C38.82577,0.4814 39.2771,0.29602 39.80517,0.29602 C40.3315,0.29602 40.78458,0.4814 41.15917,0.85453 C41.53552,1.22515 41.72269,1.67303 41.72269,2.1939 L41.72269,3.23127 L43.52803,3.23127 L43.52803,2.1939 C43.52803,1.67303 43.71508,1.22515 44.09142,0.85453 C44.46602,0.4814 44.91909,0.29602 45.44543,0.29602 C45.97787,0.29602 46.43133,0.4814 46.80131,0.85628 C47.17366,1.23153 47.35871,1.68365 47.35871,2.21265 C47.35871,2.73778 47.17366,3.18777 46.80131,3.5669 C46.43133,3.94603 45.98424,4.1334 45.46427,4.1334 L44.42858,4.1334 L44.42858,5.9419 L45.46427,5.9419 C45.98424,5.9419 46.43133,6.1294 46.80131,6.50853 C47.17366,6.88765 47.35871,7.33765 47.35871,7.85853 C47.35871,8.38965 47.17366,8.8439 46.80131,9.21878 C46.43133,9.59403 45.97787,9.7794 45.44543,9.7794 C44.9191,9.7794 44.46602,9.59403 44.09142,9.2209 C43.71508,8.85028 43.52803,8.4024 43.52803,7.88153 L43.52803,6.84403 L41.72269,6.84403 L41.72269,6.84403 L41.72269,6.84403 Z M40.82214,3.23127 L40.82214,2.21265 C40.82214,1.93128 40.72234,1.69178 40.52292,1.49403 C40.32514,1.29815 40.08394,1.19815 39.80517,1.19815 C39.52854,1.19815 39.28945,1.29815 39.0918,1.49403 C38.89227,1.69178 38.79257,1.93128 38.79257,2.21265 C38.79257,2.4919 38.89227,2.73353 39.0918,2.93153 C39.28945,3.1314 39.53065,3.23127 39.80942,3.23127 L40.82214,3.23127 L40.82214,3.23127 L40.82214,3.23127 Z M40.82214,6.84403 L39.80942,6.84403 C39.53065,6.84403 39.28945,6.94403 39.0918,7.1439 C38.89227,7.3419 38.79257,7.5814 38.79257,7.85853 C38.79257,8.13778 38.89227,8.3794 39.0918,8.57715 C39.28945,8.77728 39.53065,8.87727 39.80942,8.87727 C40.08605,8.87727 40.32514,8.77727 40.52292,8.57715 C40.72232,8.3794 40.82214,8.1399 40.82214,7.86277 L40.82214,6.84402 L40.82214,6.84403 L40.82214,6.84403 Z M44.42858,3.23127 L45.44542,3.23127 C45.72207,3.23127 45.96115,3.13137 46.15893,2.93153 C46.35846,2.73353 46.45815,2.4919 46.45815,2.21265 C46.45815,1.93128 46.35845,1.69178 46.1628,1.49403 C45.96539,1.29815 45.72631,1.19815 45.44542,1.19815 C45.16679,1.19815 44.92546,1.29815 44.72781,1.49403 C44.52828,1.69178 44.42858,1.93128 44.42858,2.21265 L44.42858,3.23127 L44.42858,3.23127 L44.42858,3.23127 Z M44.42858,6.84403 L44.42858,7.86278 C44.42858,8.1399 44.52828,8.3794 44.72781,8.57715 C44.92546,8.77728 45.16679,8.87728 45.44542,8.87728 C45.72631,8.87728 45.96539,8.77728 46.1628,8.57715 C46.35846,8.3794 46.45816,8.13778 46.45816,7.85853 C46.45816,7.5814 46.35846,7.3419 46.15893,7.1439 C45.96115,6.94403 45.72207,6.84403 45.44543,6.84403 L44.42858,6.84403 L44.42858,6.84403 L44.42858,6.84403 Z" id="UR"></path>
            </g>
        </g>
        <g id="Key" transform="translate(96.000000, 25.000000)">
            <g id="Back" stroke-width="0.62503177">
                <path d="M45.2436126,0.778 L30.10086,0.778 L19.64515,0.778 L4.50239739,0.778 C2.12282198,0.778 0.248005,3.4779679 0.248005,6.89792724 L0.248005,43.9774864 C0.248005,47.3974457 2.19493033,50.0974136 4.50239739,50.0974136 L19.64515,50.0974136 L30.10086,50.0974136 L45.2436126,50.0974136 C47.623188,50.0974136 49.498005,47.3974457 49.498005,43.9774864 L49.498005,6.89792724 C49.498005,3.4779679 47.5510797,0.778 45.2436126,0.778 L45.2436126,0.778 L45.2436126,0.778 Z" id="Frame" stroke="#96938E"></path>
                <path d="M7.4479199,7.077935 L42.2979184,7.077935 L42.2979184,43.797498 L7.4479199,43.797498 L7.4479199,7.077935 L7.4479199,7.077935 L7.4479199,7.077935 Z M24.8729195,43.797498 L24.8729195,7.077935 L24.8729195,43.797498 L24.8729195,43.797498 Z M7.4479199,25.437717 L42.2979184,25.437717 L7.4479199,25.437717 L7.4479199,25.437717 Z" id="Grid" stroke="#BDBFC1"></path>
            </g>
            <g id="Front" transform="translate(7.000000, 7.000000)" fill="#000000">
                <path d="M0.71383,34.40502 C0.71383,33.61565 0.9423,32.91052 1.399,32.28615 C1.8557,31.6619 2.50331,31.3504 3.34198,31.3504 C4.188,31.3504 4.83748,31.6619 5.29019,32.28615 C5.74327,32.91052 5.96963,33.61915 5.96963,34.41602 C5.96963,35.2129 5.74327,35.9219 5.29019,36.54065 C4.83749,37.16102 4.188,37.47077 3.34198,37.47077 C2.50331,37.47077 1.8557,37.16102 1.399,36.54065 C0.9423,35.9219 0.71383,35.2129 0.71383,34.41602 L0.71383,34.40472 L0.71383,34.40502 L0.71383,34.40502 Z M1.7021,34.41002 C1.7021,34.48512 1.7041,34.5564 1.7081,34.62402 C1.7121,34.69142 1.7181,34.75902 1.7251,34.8264 C1.7774,35.2764 1.92911,35.68878 2.17992,36.06402 C2.43073,36.4389 2.81805,36.6264 3.34227,36.6264 C3.8661,36.6264 4.2538,36.4389 4.50448,36.06402 C4.75529,35.68877 4.90703,35.2764 4.95944,34.8264 C4.96644,34.759 4.97254,34.6914 4.97604,34.62402 C4.98004,34.55642 4.98204,34.48902 4.98204,34.4214 C4.98204,34.354 4.98104,34.2864 4.97604,34.21902 C4.97204,34.15142 4.96704,34.08402 4.95944,34.0164 C4.90704,33.5664 4.75529,33.1539 4.50448,32.77902 C4.25379,32.40377 3.8661,32.2164 3.34227,32.2164 C2.81805,32.2164 2.43073,32.40377 2.17992,32.77902 C1.92911,33.1539 1.77738,33.5664 1.7251,34.0164 C1.7171,34.084 1.712,34.1514 1.7081,34.21902 C1.7041,34.28642 1.7021,34.35402 1.7021,34.4214 L1.7021,34.4101 L1.7021,34.41002 L1.7021,34.41002 Z M7.05947,39.30403 L7.05947,31.86765 C7.05947,31.71003 7.10437,31.58453 7.19423,31.49065 C7.28403,31.39715 7.40362,31.35003 7.55361,31.35003 C7.70321,31.35003 7.82313,31.39713 7.91298,31.49065 C8.00278,31.58455 8.04774,31.7139 8.04774,31.87903 L8.04774,32.16003 L8.07004,32.16003 C8.21229,31.89778 8.41644,31.6969 8.68197,31.5584 C8.94801,31.4194 9.27555,31.35003 9.665,31.35003 C10.47359,31.35003 11.10036,31.66153 11.54596,32.28578 C11.9913,32.91015 12.21417,33.61878 12.21417,34.41565 C12.21417,35.21253 11.9913,35.92153 11.54596,36.54028 C11.10036,37.16065 10.47359,37.4704 9.665,37.4704 C9.32784,37.4704 9.03398,37.4027 8.78316,37.26765 C8.53235,37.13265 8.3357,36.98065 8.19358,36.8159 C8.17118,36.7933 8.14868,36.7688 8.12628,36.7425 C8.10368,36.7164 8.08488,36.6919 8.06998,36.6695 L8.04768,36.6582 L8.04768,39.30395 C8.04768,39.4687 8.00278,39.59845 7.91292,39.69195 C7.82312,39.78585 7.70315,39.83257 7.55355,39.83257 C7.40356,39.83257 7.28402,39.78587 7.19417,39.69195 C7.10437,39.59845 7.05941,39.4687 7.05941,39.30395 L7.05947,39.30403 L7.05947,39.30403 Z M7.94654,34.41002 C7.94654,34.48512 7.94754,34.5564 7.95154,34.62402 C7.95554,34.69142 7.96054,34.75902 7.96834,34.8264 C8.02064,35.2764 8.17236,35.68878 8.42317,36.06402 C8.67399,36.4389 9.06169,36.6264 9.58552,36.6264 C10.10972,36.6264 10.49705,36.4389 10.74774,36.06402 C10.99855,35.68877 11.15027,35.2764 11.20269,34.8264 C11.20969,34.759 11.21579,34.6914 11.21969,34.62402 C11.22369,34.55642 11.22569,34.48902 11.22569,34.4214 C11.22569,34.354 11.22369,34.2864 11.21969,34.21902 C11.21569,34.15142 11.20969,34.08402 11.20269,34.0164 C11.15029,33.5664 10.99855,33.1539 10.74774,32.77902 C10.49705,32.40377 10.10972,32.2164 9.58552,32.2164 C9.06169,32.2164 8.67399,32.40377 8.42317,32.77902 C8.17236,33.1539 8.02063,33.5664 7.96834,34.0164 C7.96134,34.084 7.95524,34.1514 7.95154,34.21902 C7.94754,34.28642 7.94654,34.35402 7.94654,34.4214 L7.94654,34.4101 L7.94654,34.41002 L7.94654,34.41002 Z M13.57307,31.41765 L13.57307,30.12403 C13.57307,29.9664 13.61797,29.8409 13.70784,29.74702 C13.79764,29.65352 13.91722,29.6064 14.06721,29.6064 C14.21682,29.6064 14.33674,29.6535 14.42658,29.74702 C14.51638,29.84092 14.56134,29.97027 14.56134,30.13502 L14.56134,31.41765 L14.96564,31.41765 C15.1301,31.42465 15.2535,31.46655 15.33599,31.5414 C15.41829,31.6165 15.45977,31.7214 15.45977,31.8564 C15.45977,31.9914 15.41837,32.09652 15.33599,32.1714 C15.25349,32.2465 15.1301,32.28403 14.96564,32.28403 L14.56134,32.28403 L14.56134,36.9414 C14.56134,37.1139 14.51644,37.24503 14.42658,37.33503 C14.33678,37.42543 14.21682,37.4704 14.06721,37.4704 C13.91722,37.4704 13.79768,37.4254 13.70784,37.33503 C13.61794,37.24503 13.57307,37.11778 13.57307,36.95265 L13.57307,32.28403 L13.16878,32.28403 C13.00395,32.29203 12.88053,32.25563 12.79806,32.17878 C12.71566,32.10188 12.67464,31.99528 12.67464,31.8564 C12.67464,31.7214 12.71564,31.61653 12.79806,31.5414 C12.88046,31.4665 13.00395,31.42903 13.16878,31.42903 L13.57307,31.41773 L13.57307,31.41765 L13.57307,31.41765 Z M17.16678,31.86765 L17.16678,36.9414 C17.16678,37.1139 17.12188,37.24503 17.03202,37.33503 C16.94222,37.42543 16.82226,37.4704 16.67265,37.4704 C16.52266,37.4704 16.40312,37.4254 16.31328,37.33503 C16.22348,37.24503 16.17851,37.11778 16.17851,36.95265 L16.17851,31.86765 C16.17851,31.71003 16.22341,31.58453 16.31328,31.49065 C16.40308,31.39715 16.52266,31.35003 16.67265,31.35003 C16.82226,31.35003 16.94218,31.39713 17.03202,31.49065 C17.12182,31.58455 17.16678,31.7139 17.16678,31.87903 L17.16678,31.86773 L17.16678,31.86765 L17.16678,31.86765 Z M16.06596,29.92703 C16.06596,29.76015 16.12576,29.61765 16.24565,29.50152 C16.36556,29.38353 16.50782,29.32502 16.67265,29.32502 C16.84447,29.32502 16.98884,29.38352 17.10489,29.50152 C17.22094,29.61765 17.27884,29.76402 17.27884,29.9384 C17.27884,30.10527 17.22094,30.2494 17.10489,30.36953 C16.98884,30.49153 16.84448,30.5514 16.67265,30.5514 C16.50782,30.5514 16.36556,30.4915 16.24565,30.36953 C16.12573,30.2494 16.06596,30.10527 16.06596,29.9384 L16.06596,29.9271 L16.06596,29.92703 L16.06596,29.92703 Z M18.21096,34.40465 C18.21096,33.61527 18.43943,32.91015 18.89601,32.28577 C19.35271,31.66153 20.00033,31.35003 20.83899,31.35003 C21.68513,31.35003 22.33449,31.66153 22.7872,32.28578 C23.24041,32.91015 23.46676,33.61878 23.46676,34.41565 C23.46676,35.21253 23.24041,35.92153 22.7872,36.54028 C22.33449,37.16065 21.68513,37.4704 20.83899,37.4704 C20.00033,37.4704 19.35271,37.16065 18.89601,36.54028 C18.43944,35.92153 18.21096,35.21253 18.21096,34.41565 L18.21096,34.40435 L18.21096,34.40465 L18.21096,34.40465 Z M19.19923,34.40965 C19.19923,34.48475 19.20123,34.55603 19.20423,34.62365 C19.20823,34.69105 19.21423,34.75865 19.22123,34.82603 C19.27363,35.27603 19.42537,35.6884 19.67605,36.06365 C19.92686,36.43853 20.31419,36.62603 20.8384,36.62603 C21.36223,36.62603 21.74993,36.43853 22.00074,36.06365 C22.25156,35.6884 22.40329,35.27602 22.45557,34.82603 C22.46357,34.75863 22.46867,34.69103 22.47217,34.62365 C22.47617,34.55605 22.47817,34.48865 22.47817,34.42103 C22.47817,34.35363 22.47717,34.28603 22.47217,34.21865 C22.46817,34.15105 22.46317,34.08365 22.45557,34.01603 C22.40327,33.56603 22.25156,33.15353 22.00074,32.77865 C21.74993,32.4034 21.36223,32.21603 20.8384,32.21603 C20.31419,32.21603 19.92687,32.4034 19.67606,32.77865 C19.42537,33.15353 19.27364,33.56603 19.22123,34.01603 C19.21323,34.08363 19.20813,34.15103 19.20423,34.21865 C19.20023,34.28605 19.19923,34.35365 19.19923,34.42103 L19.19923,34.40983 L19.19923,34.40965 L19.19923,34.40965 Z M24.51155,36.94103 L24.51155,31.86728 C24.51155,31.70965 24.55645,31.58415 24.64632,31.49028 C24.73612,31.39678 24.8557,31.34965 25.0057,31.34965 C25.1553,31.34965 25.27522,31.39675 25.36507,31.49028 C25.45487,31.58418 25.49983,31.71353 25.49983,31.87865 L25.49983,32.10365 L25.52223,32.12605 C25.71677,31.88617 25.94138,31.7043 26.19605,31.5803 C26.45074,31.45667 26.70891,31.38367 26.97108,31.36105 C27.00848,31.35305 27.04388,31.34975 27.07751,31.34975 L27.17291,31.34975 C27.24791,31.34975 27.32639,31.35375 27.40887,31.36105 C27.49127,31.36805 27.57371,31.38365 27.65607,31.40605 C28.05262,31.48855 28.41761,31.7043 28.75077,32.0548 C29.08407,32.40342 29.25065,32.92855 29.25065,33.62617 L29.25065,36.94105 C29.25065,37.11355 29.20575,37.24467 29.11588,37.33467 C29.02608,37.42507 28.90612,37.47005 28.75651,37.47005 C28.6069,37.47005 28.48698,37.42505 28.39714,37.33467 C28.30734,37.24467 28.26238,37.11742 28.26238,36.9523 L28.26238,33.67867 C28.26238,33.21342 28.13897,32.8648 27.89165,32.6323 C27.64483,32.39992 27.37131,32.26492 27.07208,32.2273 C27.04208,32.2273 27.01018,32.2263 26.97668,32.2213 C26.94278,32.2173 26.91088,32.2153 26.88128,32.2153 C26.85128,32.2153 26.81928,32.2173 26.78578,32.2213 C26.75228,32.2253 26.72038,32.2273 26.69038,32.2273 C26.39077,32.2649 26.11775,32.39992 25.87043,32.6323 C25.62361,32.8648 25.50008,33.2173 25.50008,33.68967 L25.50008,36.94105 C25.50008,37.11354 25.45518,37.24467 25.36532,37.33467 C25.27542,37.42507 25.15556,37.47005 25.00595,37.47005 C24.85596,37.47005 24.73642,37.42505 24.64657,37.33467 C24.55677,37.24467 24.51181,37.11742 24.51181,36.9523 L24.51181,36.9411 L24.51155,36.94103 L24.51155,36.94103 Z" id="DL"></path>
                <path d="M31.2311817,10.6857877 C31.3179422,10.7553623 31.4187385,10.7859136 31.5336441,10.7777216 L34.3656069,10.7777216 C34.512263,10.7777216 34.6358285,10.7221763 34.7366989,10.6085411 C34.8378658,10.4948255 34.888,10.3546497 34.888,10.1904173 C34.888,10.0265268 34.8375693,9.88627051 34.7366989,9.77263536 C34.6358285,9.65891975 34.512263,9.59817488 34.3656069,9.58741378 L31.8313651,9.58741378 L27.8202177,1.6117529 C27.778583,1.52897027 27.7245351,1.46420263 27.6591369,1.41677622 C27.5718525,1.34428899 27.470327,1.30452925 27.3543649,1.29602036 L24.522402,1.29602036 C24.3756921,1.29602036 24.2519828,1.35429119 24.1511214,1.47075239 C24.0501342,1.58720352 24,1.72984334 24,1.89902385 C24,2.06845578 24.050251,2.21118611 24.1511214,2.32764731 C24.2519828,2.44408839 24.3756921,2.49678758 24.522402,2.4863282 L27.0398503,2.4863282 L31.0616548,10.4831794 L31.0616727,10.483119 C31.1064746,10.569296 31.1628172,10.6369153 31.2311817,10.6857877 Z M34.3656069,2.4863282 L31.5336441,2.4863282 C31.3869341,2.49678758 31.2632248,2.44408839 31.1623634,2.32764731 C31.0614931,2.21118611 31.011242,2.06845578 31.011242,1.89902385 C31.011242,1.72984334 31.0613763,1.58720352 31.1623634,1.47075239 C31.2632248,1.35429119 31.3869341,1.29602036 31.5336441,1.29602036 L34.3656069,1.29602036 C34.512263,1.30678146 34.6358285,1.36752633 34.7366989,1.48124194 C34.8375693,1.59487709 34.888,1.73513338 34.888,1.89902385 C34.888,2.06325626 34.8378658,2.20343209 34.7366989,2.3171477 C34.6358285,2.43078285 34.512263,2.4863282 34.3656069,2.4863282 Z" id="UR"></path>
                <path d="M4.63471,3.09677 L4.63471,7.11278 C4.63471,7.22365 4.60861,7.3069 4.55581,7.36215 C4.50351,7.41755 4.4455,7.45405 4.38112,7.47165 C4.36372,7.47765 4.34642,7.48165 4.32872,7.48475 C4.31132,7.48675 4.29422,7.48875 4.27642,7.48875 C4.26522,7.48875 4.25152,7.48775 4.23712,7.48475 C4.22262,7.48275 4.20662,7.47975 4.18912,7.47975 C4.11932,7.46235 4.05686,7.42585 4.0012,7.37063 C3.946,7.31503 3.9184,7.23213 3.9184,7.12125 L3.9184,6.78888 L3.9007,6.78888 C3.73773,7.028 3.54844,7.2045 3.33307,7.31825 C3.1177,7.432 2.88486,7.48863 2.63441,7.48863 C1.98219,7.48863 1.47857,7.248 1.12344,6.7655 C0.76793,6.28425 0.59037,5.73288 0.59037,5.11325 C0.59037,4.4935 0.76793,3.94213 1.12344,3.45638 C1.47857,2.97088 1.98219,2.72888 2.63441,2.72888 C2.9022,2.72888 3.13492,2.78278 3.33307,2.8905 C3.5311,2.99863 3.72039,3.15163 3.9007,3.35013 L3.9184,3.34113 L3.9184,3.09625 C3.9184,2.991 3.9459,2.9095 4.0012,2.851 C4.0568,2.7929 4.11937,2.755 4.18912,2.73725 C4.20672,2.73725 4.22262,2.73625 4.23712,2.73325 C4.25162,2.73125 4.26462,2.72925 4.27642,2.72925 C4.29422,2.72925 4.31132,2.73025 4.32872,2.73325 C4.34652,2.73525 4.36372,2.74025 4.38112,2.74635 C4.44552,2.76375 4.50353,2.80165 4.55581,2.8601 C4.60861,2.9186 4.63471,3.0001 4.63471,3.10497 L4.63471,3.09597 L4.63471,3.09677 L4.63471,3.09677 Z M1.35907,5.10902 C1.35907,5.16752 1.36006,5.22277 1.36407,5.27552 C1.36607,5.32802 1.37107,5.3804 1.37707,5.4329 C1.41777,5.7829 1.53555,6.10365 1.73083,6.39527 C1.92573,6.68715 2.22708,6.83277 2.63487,6.83277 C3.04241,6.83277 3.34375,6.68715 3.53904,6.39527 C3.73394,6.10365 3.85174,5.7829 3.89267,5.4329 C3.89867,5.3804 3.90267,5.32802 3.90577,5.27552 C3.90777,5.22282 3.90977,5.17027 3.90977,5.1179 C3.90977,5.0654 3.90877,5.01303 3.90577,4.96052 C3.90377,4.90782 3.89877,4.85527 3.89267,4.8029 C3.85177,4.45278 3.73394,4.13215 3.53904,3.84053 C3.34375,3.5489 3.04241,3.4029 2.63487,3.4029 C2.22708,3.4029 1.92573,3.5489 1.73083,3.84053 C1.53555,4.13215 1.41775,4.45277 1.37707,4.8029 C1.37107,4.8553 1.36707,4.90778 1.36407,4.96052 C1.36007,5.01302 1.35907,5.0654 1.35907,5.1179 L1.35907,5.1089 L1.35907,5.10902 L1.35907,5.10902 Z M6.41635,1.09302 L6.41635,7.07802 C6.41635,7.2119 6.38185,7.31402 6.31165,7.38415 C6.24165,7.45405 6.14868,7.48902 6.03227,7.48902 C5.91584,7.48902 5.82251,7.45402 5.75288,7.38415 C5.68268,7.31405 5.64781,7.21478 5.64781,7.08652 L5.64781,1.09302 C5.64781,0.9704 5.68271,0.87265 5.75288,0.80002 C5.82248,0.72702 5.91584,0.69052 6.03227,0.69052 C6.14868,0.69052 6.24165,0.72702 6.31165,0.80002 C6.38185,0.87262 6.41635,0.97327 6.41635,1.1019 L6.41635,1.0929 L6.41635,1.09302 L6.41635,1.09302 Z M7.67451,2.78177 L7.67451,1.77553 C7.67451,1.6529 7.70911,1.5554 7.77921,1.4824 C7.84941,1.4094 7.9423,1.3729 8.05872,1.3729 C8.17502,1.3729 8.26848,1.4094 8.3381,1.4824 C8.4081,1.5554 8.44317,1.65565 8.44317,1.78427 L8.44317,2.78177 L8.75762,2.78177 C8.88565,2.78777 8.98186,2.81967 9.04586,2.87777 C9.10986,2.93627 9.14166,3.01815 9.14166,3.12302 C9.14166,3.2279 9.10986,3.30977 9.04586,3.36777 C8.98186,3.42627 8.88565,3.45537 8.75762,3.45537 L8.44317,3.45537 L8.44317,7.07799 C8.44317,7.21187 8.40817,7.31399 8.3381,7.38412 C8.2685,7.45402 8.17502,7.48899 8.05872,7.48899 C7.9423,7.48899 7.84934,7.45399 7.77921,7.38412 C7.70921,7.31402 7.67451,7.21475 7.67451,7.08649 L7.67451,3.45537 L7.36006,3.45537 C7.23205,3.46137 7.13584,3.43337 7.07182,3.37387 C7.00782,3.31397 6.97562,3.23062 6.97562,3.12299 C6.97562,3.01812 7.00782,2.93624 7.07182,2.87774 C7.13582,2.81964 7.23205,2.79024 7.36006,2.79024 L7.67451,2.78124 L7.67451,2.78177 L7.67451,2.78177 Z" id="UL"></path>
            </g>
        </g>
        <g id="Key" transform="translate(16.000000, 25.000000)">
            <g id="Back" stroke-width="0.62503177">
                <path d="M57.0783402,0.778 L38.178565,0.778 L25.0387212,0.778 L6.13894587,0.778 C3.16898118,0.778 0.829009,3.4779679 0.829009,6.89792724 L0.829009,43.9774864 C0.829009,47.3974457 3.25898011,50.0974136 6.13894587,50.0974136 L25.0387212,50.0974136 L38.178565,50.0974136 L57.0783402,50.0974136 C60.0483049,50.0974136 62.3882771,47.3974457 62.3882771,43.9774864 L62.3882771,6.89792724 C62.3882771,3.4779679 59.958306,0.778 57.0783402,0.778 L57.0783402,0.778 L57.0783402,0.778 Z" id="frame" stroke="#96938E"></path>
                <path d="M8.11892244,7.077935 L55.2783618,7.077935 L55.2783618,43.797498 L8.11892244,43.797498 L8.11892244,7.077935 L8.11892244,7.077935 L8.11892244,7.077935 Z M31.6986421,43.797498 L31.6986421,7.077935 L31.6986421,43.797498 L31.6986421,43.797498 Z M8.11892244,25.437717 L55.2783618,25.437717 L8.11892244,25.437717 L8.11892244,25.437717 Z" id="grid" stroke="#BDBFC1"></path>
            </g>
            <g id="Front" transform="translate(7.000000, 8.000000)" fill="#000000">
                <path d="M0.675511,33.40502 C0.675511,32.61565 0.898371,31.91052 1.343717,31.28615 C1.789437,30.6619 2.465005,30.3504 3.370795,30.3504 C3.880154,30.3504 4.274963,30.4273 4.555721,30.57927 C4.836605,30.73127 4.976984,30.90915 4.976984,31.11365 L4.976984,31.13065 L4.976984,31.14945 C4.969184,31.24695 4.928194,31.33507 4.853201,31.41382 C4.778581,31.49242 4.68487,31.53182 4.572692,31.53182 C4.512672,31.53182 4.458516,31.52482 4.409727,31.50942 C4.361187,31.49412 4.314147,31.47932 4.269223,31.46442 C4.239523,31.44912 4.209453,31.43432 4.179383,31.41942 C4.149683,31.40422 4.115743,31.38932 4.078559,31.37442 C3.996199,31.33692 3.900746,31.30102 3.792061,31.26742 C3.683501,31.23382 3.543121,31.21682 3.370798,31.21682 C2.839228,31.21682 2.440551,31.4042 2.174891,31.77945 C1.908981,32.15432 1.746266,32.56682 1.686495,33.01682 C1.678995,33.08442 1.673385,33.15182 1.669525,33.21945 C1.665925,33.28685 1.663825,33.35445 1.663825,33.42182 C1.663825,33.48942 1.665925,33.55682 1.669525,33.62445 C1.673425,33.69185 1.679025,33.75945 1.686495,33.82682 C1.746265,34.27682 1.908981,34.6892 2.174891,35.06445 C2.440551,35.43932 2.839228,35.62682 3.370798,35.62682 C3.543121,35.62682 3.687369,35.61002 3.803416,35.57612 C3.919463,35.54252 4.022408,35.50312 4.11225,35.45812 C4.15717,35.43552 4.20209,35.41142 4.247015,35.38512 C4.291935,35.35902 4.336855,35.33802 4.381779,35.32312 C4.411479,35.31612 4.441549,35.30822 4.471619,35.30052 C4.501319,35.29252 4.531389,35.28922 4.561459,35.28922 C4.673513,35.28922 4.765477,35.32462 4.836603,35.39584 C4.907733,35.46704 4.943042,35.57022 4.943042,35.70522 L4.943042,35.75022 C4.943042,35.76542 4.939542,35.78032 4.932062,35.79522 C4.894622,35.96772 4.742893,36.12372 4.477233,36.26222 C4.211198,36.40109 3.842718,36.47059 3.370794,36.47059 C2.465004,36.47059 1.789436,36.16084 1.343716,35.54047 C0.89837,34.92172 0.67551,34.21272 0.67551,33.41584 L0.67551,33.40454 L0.675511,33.40502 L0.675511,33.40502 Z M5.661786,33.40502 C5.661786,32.61565 5.890261,31.91052 6.346962,31.28615 C6.803663,30.6619 7.451279,30.3504 8.289937,30.3504 C9.135956,30.3504 9.785445,30.6619 10.238152,31.28615 C10.691235,31.91052 10.917589,32.61915 10.917589,33.41602 C10.917589,34.2129 10.691235,34.9219 10.238152,35.54065 C9.785445,36.16102 9.135956,36.47077 8.289937,36.47077 C7.451279,36.47077 6.803663,36.16102 6.346962,35.54065 C5.890261,34.9219 5.661786,34.2129 5.661786,33.41602 L5.661786,33.40472 L5.661786,33.40502 L5.661786,33.40502 Z M6.650056,33.41002 C6.650056,33.48512 6.652156,33.5564 6.655756,33.62402 C6.659656,33.69142 6.665256,33.75902 6.672726,33.8264 C6.725016,34.2764 6.876744,34.68878 7.127555,35.06402 C7.378366,35.4389 7.765688,35.6264 8.289896,35.6264 C8.813729,35.6264 9.201426,35.4389 9.452112,35.06402 C9.702923,34.68877 9.854658,34.2764 9.907066,33.8264 C9.914466,33.759 9.920176,33.6914 9.923656,33.62402 C9.927556,33.55642 9.929256,33.48902 9.929256,33.4214 C9.929256,33.354 9.927456,33.2864 9.923656,33.21902 C9.920156,33.15142 9.914456,33.08402 9.907066,33.0164 C9.854656,32.5664 9.702923,32.1539 9.452112,31.77902 C9.201426,31.40377 8.813729,31.2164 8.289896,31.2164 C7.765688,31.2164 7.378366,31.40377 7.127555,31.77902 C6.876744,32.1539 6.725009,32.5664 6.672726,33.0164 C6.665226,33.084 6.659626,33.1514 6.655756,33.21902 C6.652156,33.28642 6.650056,33.35402 6.650056,33.4214 L6.650056,33.4101 L6.650056,33.41002 L6.650056,33.41002 Z M11.96251,35.9414 L11.96251,30.86765 C11.96251,30.71003 12.00743,30.58453 12.097274,30.49065 C12.187114,30.39715 12.306658,30.35003 12.456645,30.35003 C12.606258,30.35003 12.726174,30.39713 12.816016,30.49065 C12.905856,30.58455 12.950781,30.7139 12.950781,30.87903 L12.950781,31.10403 L12.972991,31.12643 C13.167525,30.88655 13.392132,30.70468 13.646812,30.58068 C13.901491,30.45706 14.159789,30.38406 14.42183,30.36143 C14.45938,30.35443 14.4947,30.35013 14.528269,30.35013 L14.623849,30.35013 C14.698839,30.35013 14.77733,30.35413 14.859686,30.36143 C14.942166,30.36843 15.024523,30.38403 15.107003,30.40643 C15.503435,30.48893 15.868546,30.70468 16.201713,31.05518 C16.53488,31.4038 16.701463,31.92893 16.701463,32.62655 L16.701463,35.94143 C16.701463,36.11393 16.656543,36.24505 16.566699,36.33506 C16.476859,36.42546 16.356941,36.47043 16.207328,36.47043 C16.057715,36.47043 15.937799,36.42543 15.847957,36.33506 C15.758117,36.24506 15.713193,36.1178 15.713193,35.95268 L15.713193,32.67906 C15.713193,32.2138 15.589783,31.86518 15.342591,31.63268 C15.095648,31.4003 14.822252,31.2653 14.523025,31.22768 C14.492955,31.22768 14.461135,31.22668 14.427445,31.22168 C14.393505,31.21768 14.361685,31.21568 14.331995,31.21568 C14.301925,31.21568 14.270105,31.21768 14.236545,31.22168 C14.202855,31.22568 14.171035,31.22768 14.140965,31.22768 C13.841364,31.26528 13.568342,31.4003 13.321149,31.63268 C13.074207,31.86518 12.950798,32.21768 12.950798,32.69005 L12.950798,35.94143 C12.950798,36.11393 12.905878,36.24505 12.816033,36.33505 C12.726193,36.42545 12.606275,36.47043 12.456662,36.47043 C12.306675,36.47043 12.187134,36.42543 12.097291,36.33505 C12.007451,36.24505 11.962527,36.1178 11.962527,35.95268 L11.962527,35.94138 L11.96251,35.9414 L11.96251,35.9414 Z M18.319012,30.41765 L18.319012,29.12403 C18.319012,28.9664 18.363932,28.8409 18.453776,28.74702 C18.543616,28.65352 18.663159,28.6064 18.813147,28.6064 C18.96276,28.6064 19.082675,28.6535 19.172518,28.74702 C19.262358,28.84092 19.307282,28.97027 19.307282,29.13502 L19.307282,30.41765 L19.711575,30.41765 C19.876037,30.42465 19.999571,30.46655 20.081927,30.5414 C20.164407,30.6165 20.20571,30.7214 20.20571,30.8564 C20.20571,30.9914 20.1644,31.09652 20.081927,31.1714 C19.999567,31.2465 19.876037,31.28403 19.711575,31.28403 L19.307282,31.28403 L19.307282,35.9414 C19.307282,36.1139 19.262362,36.24503 19.172518,36.33503 C19.082678,36.42543 18.96276,36.4704 18.813147,36.4704 C18.663159,36.4704 18.543618,36.4254 18.453776,36.33503 C18.363936,36.24503 18.319012,36.11778 18.319012,35.95265 L18.319012,31.28403 L17.914719,31.28403 C17.749882,31.29203 17.626473,31.25563 17.544118,31.17878 C17.461638,31.10188 17.420584,30.99528 17.420584,30.8564 C17.420584,30.7214 17.461644,30.61653 17.544118,30.5414 C17.626478,30.4665 17.749882,30.42903 17.914719,30.42903 L18.319012,30.41773 L18.319012,30.41765 L18.319012,30.41765 Z M20.924452,35.9414 L20.924452,30.86765 C20.924452,30.71003 20.969372,30.58453 21.059216,30.49065 C21.149056,30.39715 21.2686,30.35003 21.418587,30.35003 C21.568201,30.35003 21.688116,30.39713 21.777959,30.49065 C21.867799,30.58455 21.912723,30.7139 21.912723,30.87903 L21.912723,31.37403 L21.935063,31.37403 C21.949903,31.34393 21.970753,31.31023 21.996953,31.27265 C22.023163,31.23515 22.047483,31.19405 22.069823,31.14903 C22.204587,30.95377 22.380404,30.77202 22.597524,30.6034 C22.814769,30.43465 23.043244,30.35002 23.2827,30.35002 C23.454899,30.35002 23.589663,30.39892 23.686993,30.4964 C23.784193,30.5938 23.833112,30.7139 23.833112,30.8564 C23.833112,31.00265 23.782452,31.12065 23.681253,31.21278 C23.58018,31.30448 23.424827,31.37015 23.215443,31.40765 C23.170523,31.41465 23.123483,31.42465 23.075064,31.43565 C23.026274,31.44695 22.979614,31.46405 22.934684,31.48635 C22.680005,31.57635 22.446164,31.7471 22.232538,31.99835 C22.019162,32.24947 21.912723,32.61873 21.912723,33.10635 L21.912723,35.94135 C21.912723,36.11385 21.867803,36.24497 21.777959,36.33497 C21.688119,36.42537 21.568201,36.47035 21.418587,36.47035 C21.2686,36.47035 21.149059,36.42535 21.059216,36.33497 C20.969376,36.24497 20.924452,36.11772 20.924452,35.9526 L20.924452,35.9413 L20.924452,35.9414 L20.924452,35.9414 Z M24.203339,33.40465 C24.203339,32.61527 24.431939,31.91015 24.888515,31.28577 C25.345216,30.66152 25.992833,30.35002 26.83149,30.35002 C27.67751,30.35002 28.326998,30.66152 28.779706,31.28577 C29.232788,31.91015 29.459142,32.61877 29.459142,33.41565 C29.459142,34.21252 29.232788,34.92152 28.779706,35.54027 C28.326998,36.16065 27.67751,36.4704 26.83149,36.4704 C25.992833,36.4704 25.345216,36.16065 24.888515,35.54027 C24.431939,34.92152 24.203339,34.21252 24.203339,33.41565 L24.203339,33.40435 L24.203339,33.40465 L24.203339,33.40465 Z M25.19161,33.40965 C25.19161,33.48475 25.19371,33.55602 25.19731,33.62365 C25.20121,33.69105 25.20681,33.75865 25.21428,33.82603 C25.26656,34.27602 25.418298,34.6884 25.669109,35.06365 C25.91992,35.43852 26.307243,35.62603 26.83145,35.62603 C27.355284,35.62603 27.74298,35.43853 27.993667,35.06365 C28.244478,34.6884 28.396212,34.27602 28.44862,33.82603 C28.45602,33.75863 28.46173,33.69102 28.46522,33.62365 C28.46912,33.55605 28.47082,33.48865 28.47082,33.42102 C28.47082,33.35362 28.46902,33.28602 28.46522,33.21865 C28.46172,33.15105 28.45592,33.08365 28.44862,33.01602 C28.39621,32.56602 28.244478,32.15352 27.993667,31.77865 C27.74298,31.4034 27.355284,31.21602 26.83145,31.21602 C26.307243,31.21602 25.91992,31.4034 25.669109,31.77865 C25.418298,32.15352 25.266564,32.56603 25.21428,33.01602 C25.20678,33.08362 25.20117,33.15102 25.19731,33.21865 C25.19371,33.28605 25.19161,33.35365 25.19161,33.42102 L25.19161,33.40972 L25.19161,33.40965 L25.19161,33.40965 Z M31.492334,28.24603 L31.492334,35.94103 C31.492334,36.11352 31.447414,36.24465 31.35757,36.33465 C31.26773,36.42505 31.147812,36.47003 30.998199,36.47003 C30.848211,36.47003 30.72867,36.42503 30.638828,36.33465 C30.548988,36.24465 30.504064,36.1174 30.504064,35.95228 L30.504064,28.24603 C30.504064,28.08865 30.548984,27.9629 30.638828,27.86928 C30.728668,27.77538 30.848211,27.72865 30.998199,27.72865 C31.147812,27.72865 31.267727,27.77535 31.35757,27.86928 C31.44741,27.96288 31.492334,28.09215 31.492334,28.25728 L31.492334,28.24608 L31.492334,28.24603 L31.492334,28.24603 Z" id="DL"></path>
                <path d="M41.7600979,1.75020813 L45.626791,5.56238 C45.733103,5.66335 45.86094,5.70825 46.012341,5.69535 C46.16403,5.68262 46.296908,5.61551 46.410033,5.49646 C46.522926,5.37765 46.583026,5.24123 46.588126,5.08937 C46.593334,4.93745 46.545564,4.80833 46.446694,4.69949 L42.2275905,0.539877795 C42.2176997,0.528209919 42.2073362,0.516674134 42.1965,0.50527 C42.079966,0.38262 41.945393,0.31373 41.79194,0.2989 C41.638604,0.284 41.508785,0.3269 41.40243,0.42798 L37.092416,4.71099 C36.993546,4.81983 36.945776,4.94895 36.950984,5.10087 C36.956084,5.25273 37.016184,5.38915 37.129077,5.50796 C37.242202,5.62701 37.37508,5.69412 37.526769,5.70685 C37.67817,5.71975 37.806007,5.67485 37.912319,5.57388 L41.7600979,1.75020813 Z" id="UR"></path>
            </g>
        </g>
    </g>
</svg>