<?xml version="1.0" encoding="UTF-8" standalone="no"?>
<svg width="398px" height="41px" viewBox="0 0 398 41" version="1.1" xmlns="http://www.w3.org/2000/svg" xmlns:xlink="http://www.w3.org/1999/xlink">
    <!-- Generator: Sketch 3.7.2 (28276) - http://www.bohemiancoding.com/sketch -->
    <title>Group</title>
    <desc>Created with Sketch.</desc>
    <defs></defs>
    <g id="Arrange" stroke="none" stroke-width="1" fill="none" fill-rule="evenodd">
        <g id="Group" transform="translate(1.000000, 1.000000)">
            <g id="Key" transform="translate(345.000000, 0.000000)">
                <g id="Back" stroke-width="0.62503177">
                    <path d="M46.6008772,0 L30.9429825,0 L20.0570176,0 L4.39912281,0 C1.93859649,0 0,2.16240876 0,4.90145986 L0,34.5985402 C0,37.3375912 2.0131579,39.5 4.39912281,39.5 L20.0570176,39.5 L30.9429825,39.5 L46.6008772,39.5 C49.0614035,39.5 51,37.3375912 51,34.5985402 L51,4.90145986 C51,2.16240876 48.9868421,0 46.6008772,0 L46.6008772,0 L46.6008772,0 Z" id="frame" stroke="#96938E"></path>
                    <path d="M5,5 L46,5 L46,34.5 L5,34.5 L5,5 L5,5 L5,5 Z M25.5,34.5 L25.5,5 L25.5,34.5 L25.5,34.5 Z M5,19.7500004 L46,19.7500004 L5,19.7500004 L5,19.7500004 Z" id="grid" stroke="#BDBFC1"></path>
                </g>
                <g id="Front" transform="translate(5.000000, 5.000000)" fill="#000000">
                    <text id="DR" font-family="VAGRoundedStd-Light, VAG Rounded Std" font-size="10" font-weight="300">
                        <tspan x="13.065" y="29.5">control</tspan>
                    </text>
                    <path d="M4.74067822,1.47756267 L8.55204219,5.35101133 C8.65683296,5.45360432 8.78284072,5.49922605 8.9320753,5.48611869 C9.08159375,5.47318407 9.21257038,5.40499535 9.32407666,5.28403174 C9.43535425,5.16331199 9.49459427,5.02469917 9.4996213,4.87039818 C9.50475477,4.71603622 9.45766832,4.58484075 9.36021307,4.47425125 L5.20148142,0.2477775 C5.19173208,0.235922074 5.18151687,0.224200863 5.17083578,0.21261342 C5.05596928,0.0879919456 4.92332191,0.0179946087 4.77206469,0.00292623151 C4.6209228,-0.0122132709 4.4929614,0.0313763031 4.38812825,0.134081062 L0.139786932,4.4859361 C0.0423316784,4.5965256 -0.00475477304,4.72772107 0.000378704852,4.88208303 C0.00540572813,5.03638402 0.0646457476,5.17499684 0.175923344,5.29571659 C0.28742962,5.4166802 0.418406247,5.48486892 0.567924705,5.49780354 C0.717159284,5.5109109 0.843167044,5.46528918 0.947957808,5.36269619 L4.74067822,1.47756267 Z" id="UL"></path>
                </g>
            </g>
            <g id="Key" transform="translate(285.000000, 0.000000)">
                <g id="Back" stroke-width="0.62503177">
                    <path d="M46.5944363,0 L30.9136164,0 L20.0863836,0 L4.40556369,0 C1.94143485,0 0,2.16240876 0,4.90145986 L0,34.5985402 C0,37.3375912 2.01610542,39.5 4.40556369,39.5 L20.0863836,39.5 L30.9136164,39.5 L46.5944363,39.5 C49.0585651,39.5 51,37.3375912 51,34.5985402 L51,4.90145986 C51,2.16240876 48.9838946,0 46.5944363,0 L46.5944363,0 L46.5944363,0 Z" id="Frame" stroke="#96938E"></path>
                    <path d="M5,5 L46,5 L46,34.5 L5,34.5 L5,5 L5,5 L5,5 Z M25.5000005,34.5 L25.5000005,5 L25.5000005,34.5 L25.5000005,34.5 Z M5,19.7500004 L46,19.7500004 L5,19.7500004 L5,19.7500004 Z" id="Grid" stroke="#BDBFC1"></path>
                </g>
                <g id="Front" transform="translate(5.000000, 5.000000)" fill="#000000">
                    <text id="DL" font-family="VAGRoundedStd-Light, VAG Rounded Std" font-size="10" font-weight="300">
                        <tspan x="15.08" y="29.5">option</tspan>
                    </text>
                    <text id="UR" font-family="VAGRoundedStd-Light, VAG Rounded Std" font-size="8" font-weight="300">
                        <tspan x="32.67" y="6">alt</tspan>
                    </text>
                    <path d="M6.30935217,9.40660018 C6.38505246,9.47629955 6.4729993,9.50690555 6.57325671,9.49869891 L9.04420146,9.49869891 C9.17216187,9.49869891 9.27997527,9.44305397 9.36798673,9.32921511 C9.4562569,9.21529566 9.5,9.07486853 9.5,8.9103417 C9.5,8.74615744 9.4559982,8.60564971 9.36798673,8.49181085 C9.27997527,8.37789138 9.17216187,8.31703762 9.04420146,8.30625723 L6.83302427,8.30625723 L3.33321712,0.316298542 C3.29689003,0.23336751 3.24973213,0.168483768 3.19267088,0.12097233 C3.11651353,0.048355152 3.02793045,0.00852414189 2.92675113,0 L0.455806338,0 C0.327798948,0 0.219860081,0.0583752869 0.13185647,0.17504526 C0.0437431096,0.291705156 0,0.434600685 0,0.604084474 C0,0.773820145 0.04384502,0.916806345 0.13185647,1.03347632 C0.219860081,1.15012614 0.327798948,1.20291981 0.455806338,1.19244168 L2.65233081,1.19244168 L6.1614365,9.20362866 L6.16145218,9.2035682 C6.20054269,9.28989961 6.24970276,9.35764014 6.30935217,9.40660018 Z M9.04420146,1.19244168 L6.57325671,1.19244168 C6.44524932,1.20291981 6.33731046,1.15012614 6.24930684,1.03347632 C6.16129539,0.916806345 6.11745037,0.773820145 6.11745037,0.604084474 C6.11745037,0.434600685 6.16119348,0.291705156 6.24930684,0.17504526 C6.33731046,0.0583752869 6.44524932,0 6.57325671,0 L9.04420146,0 C9.17216187,0.0107803862 9.27997527,0.0716341543 9.36798673,0.185553617 C9.4559982,0.299392478 9.5,0.439900202 9.5,0.604084474 C9.5,0.768611304 9.4562569,0.909038424 9.36798673,1.02295789 C9.27997527,1.13679675 9.17216187,1.19244168 9.04420146,1.19244168 Z" id="UL"></path>
                </g>
            </g>
            <g id="Key" transform="translate(225.000000, 0.000000)">
                <g id="Back" stroke-width="0.62503177">
                    <path d="M46.6008772,0 L30.9429825,0 L20.0570176,0 L4.39912281,0 C1.93859649,0 0,2.16240876 0,4.90145986 L0,34.5985402 C0,37.3375912 2.0131579,39.5 4.39912281,39.5 L20.0570176,39.5 L30.9429825,39.5 L46.6008772,39.5 C49.0614035,39.5 51,37.3375912 51,34.5985402 L51,4.90145986 C51,2.16240876 48.9868421,0 46.6008772,0 L46.6008772,0 L46.6008772,0 Z" id="Frame" stroke="#96938E"></path>
                    <path d="M5,5 L46,5 L46,34.5 L5,34.5 L5,5 L5,5 L5,5 Z M25.5,34.5 L25.5,5 L25.5,34.5 L25.5,34.5 Z M5,19.7500004 L46,19.7500004 L5,19.7500004 L5,19.7500004 Z" id="Grid" stroke="#BDBFC1"></path>
                </g>
                <g id="Front" transform="translate(4.000000, 5.000000)" fill="#000000">
                    <text id="DL" font-family="VAGRoundedStd-Light, VAG Rounded Std" font-size="10" font-weight="300">
                        <tspan x="0.25" y="29.5">command</tspan>
                    </text>
                    <path d="M4.8441488,5.65577463 L6.65584117,5.65577463 L6.65584117,3.84410516 L4.8441488,3.84410516 L4.8441488,5.65577463 L4.8441488,5.65577463 L4.8441488,5.65577463 Z M4.8441488,6.55948565 L4.8441488,7.59880391 C4.8441488,8.12058675 4.65632021,8.56925168 4.27864597,8.94052121 C3.90273792,9.31430513 3.44806368,9.5 2.91988171,9.5 C2.38995362,9.5 1.93703554,9.31430513 1.56148876,8.93839749 C1.1855807,8.5628605 1,8.10781441 1,7.5757636 C1,7.05397074 1.1855807,6.60318209 1.56148876,6.22339767 C1.93703554,5.84360323 2.3835612,5.65577463 2.90110588,5.65577463 L3.94043008,5.65577463 L3.94043008,3.84410516 L2.90110588,3.84410516 C2.3835612,3.84410516 1.93702551,3.65640679 1.56148876,3.27661235 C1.1855807,2.89681791 1,2.44602926 1,1.91998897 C1,1.39006188 1.1855807,0.937149518 1.56148876,0.561241878 C1.93703554,0.185704886 2.38995362,0 2.91988171,0 C3.44806368,0 3.90273792,0.185704886 4.27864597,0.559488811 C4.65632021,0.930758337 4.8441488,1.37942326 4.8441488,1.90120611 L4.8441488,2.94039414 L6.65584117,2.94039414 L6.65584117,1.90120611 C6.65584117,1.37942326 6.84354933,0.930758337 7.22121354,0.559488811 C7.59713163,0.185704886 8.05179582,0 8.57998783,0 C9.1143013,0 9.56935687,0.185704886 9.9406387,0.561241878 C10.3142989,0.937149518 10.5,1.39006188 10.5,1.91998897 C10.5,2.44603928 10.3142989,2.89681791 9.9406387,3.27661235 C9.56935687,3.65640679 9.12069372,3.84410516 8.59889412,3.84410516 L7.55955989,3.84410516 L7.55955989,5.65577463 L8.59889412,5.65577463 C9.12069372,5.65577463 9.56935687,5.84360323 9.9406387,6.22339767 C10.3142989,6.60318209 10.5,7.05397074 10.5,7.5757636 C10.5,8.10781441 10.3142989,8.5628605 9.9406387,8.93839749 C9.56935687,9.31430513 9.1143013,9.5 8.57998783,9.5 C8.05180586,9.5 7.59713163,9.31430513 7.22121354,8.94052121 C6.84354933,8.56925168 6.65584117,8.12058675 6.65584117,7.59880391 L6.65584117,6.55948565 L4.8441488,6.55948565 L4.8441488,6.55948565 L4.8441488,6.55948565 Z M3.94043008,2.94039414 L3.94043008,1.91998897 C3.94043008,1.63812586 3.84027891,1.39820612 3.64015722,1.20010956 C3.44168131,1.00388627 3.19963261,0.903711019 2.91988171,0.903711019 C2.64227835,0.903711019 2.40234707,1.00388627 2.20400161,1.20010956 C2.00376953,1.39820612 1.90371872,1.63812586 1.90371872,1.91998897 C1.90371872,2.19972837 2.00376953,2.44178183 2.20400161,2.64012884 C2.40234707,2.84034912 2.64439577,2.94039414 2.92414667,2.94039414 L3.94043008,2.94039414 L3.94043008,2.94039414 L3.94043008,2.94039414 Z M3.94043008,6.55948565 L2.92414667,6.55948565 C2.64439577,6.55948565 2.40234707,6.6596609 2.20400161,6.85988118 C2.00376953,7.05822818 1.90371872,7.29814792 1.90371872,7.5757636 C1.90371872,7.855503 2.00376953,8.09754644 2.20400161,8.29564301 C2.40234707,8.49612374 2.64439577,8.59628898 2.92414667,8.59628898 C3.20175003,8.59628898 3.44168131,8.49611373 3.64015722,8.29564301 C3.84025884,8.09754644 3.94043008,7.85762671 3.94043008,7.58001103 L3.94043008,6.55947563 L3.94043008,6.55948565 L3.94043008,6.55948565 Z M7.55955989,2.94039414 L8.5799778,2.94039414 C8.85760123,2.94039414 9.09752247,2.84031906 9.29599839,2.64012884 C9.49623047,2.44178183 9.59627124,2.19972837 9.59627124,1.91998897 C9.59627124,1.63812586 9.49622043,1.39820612 9.29988201,1.20010956 C9.10177739,1.00388627 8.86185615,0.903711019 8.5799778,0.903711019 C8.30036739,0.903711019 8.05818824,1.00388627 7.85984278,1.20010956 C7.6596107,1.39820612 7.55955989,1.63812586 7.55955989,1.91998897 L7.55955989,2.94039414 L7.55955989,2.94039414 L7.55955989,2.94039414 Z M7.55955989,6.55948565 L7.55955989,7.58002105 C7.55955989,7.85762671 7.6596107,8.09754644 7.85984278,8.29564301 C8.05818824,8.49612374 8.30036739,8.596299 8.5799778,8.596299 C8.86185615,8.596299 9.10177739,8.49612374 9.29988201,8.29564301 C9.49623047,8.09754644 9.59628128,7.855503 9.59628128,7.5757636 C9.59628128,7.29814792 9.49623047,7.05822818 9.29599839,6.85988118 C9.09752247,6.6596609 8.85760123,6.55948565 8.57998783,6.55948565 L7.55955989,6.55948565 L7.55955989,6.55948565 L7.55955989,6.55948565 Z" id="UR"></path>
                </g>
            </g>
            <g id="Key" transform="translate(165.000000, 0.000000)">
                <g id="Back" stroke-width="0.62503177">
                    <path d="M46.6008772,0 L30.9429825,0 L20.0570176,0 L4.39912281,0 C1.93859649,0 0,2.16240876 0,4.90145986 L0,34.5985402 C0,37.3375912 2.0131579,39.5 4.39912281,39.5 L20.0570176,39.5 L30.9429825,39.5 L46.6008772,39.5 C49.0614035,39.5 51,37.3375912 51,34.5985402 L51,4.90145986 C51,2.16240876 48.9868421,0 46.6008772,0 L46.6008772,0 L46.6008772,0 Z" id="Frame" stroke="#96938E"></path>
                    <path d="M5,5 L46,5 L46,34.5 L5,34.5 L5,5 L5,5 L5,5 Z M25.5,34.5 L25.5,5 L25.5,34.5 L25.5,34.5 Z M5,19.7500004 L46,19.7500004 L5,19.7500004 L5,19.7500004 Z" id="Grid" stroke="#BDBFC1"></path>
                </g>
                <g id="Front" transform="translate(4.000000, 5.000000)" fill="#000000">
                    <text id="DL" font-family="VAGRoundedStd-Light, VAG Rounded Std" font-size="10" font-weight="300">
                        <tspan x="0.25" y="29.5">command</tspan>
                    </text>
                    <path d="M36.3441488,5.65577463 L38.1558412,5.65577463 L38.1558412,3.84410516 L36.3441488,3.84410516 L36.3441488,5.65577463 L36.3441488,5.65577463 L36.3441488,5.65577463 Z M36.3441488,6.55948565 L36.3441488,7.59880391 C36.3441488,8.12058675 36.1563202,8.56925168 35.778646,8.94052121 C35.4027379,9.31430513 34.9480637,9.5 34.4198817,9.5 C33.8899536,9.5 33.4370355,9.31430513 33.0614888,8.93839749 C32.6855807,8.5628605 32.5,8.10781441 32.5,7.5757636 C32.5,7.05397074 32.6855807,6.60318209 33.0614888,6.22339767 C33.4370355,5.84360323 33.8835612,5.65577463 34.4011059,5.65577463 L35.4404301,5.65577463 L35.4404301,3.84410516 L34.4011059,3.84410516 C33.8835612,3.84410516 33.4370255,3.65640679 33.0614888,3.27661235 C32.6855807,2.89681791 32.5,2.44602926 32.5,1.91998897 C32.5,1.39006188 32.6855807,0.937149518 33.0614888,0.561241878 C33.4370355,0.185704886 33.8899536,0 34.4198817,0 C34.9480637,0 35.4027379,0.185704886 35.778646,0.559488811 C36.1563202,0.930758337 36.3441488,1.37942326 36.3441488,1.90120611 L36.3441488,2.94039414 L38.1558412,2.94039414 L38.1558412,1.90120611 C38.1558412,1.37942326 38.3435493,0.930758337 38.7212135,0.559488811 C39.0971316,0.185704886 39.5517958,0 40.0799878,0 C40.6143013,0 41.0693569,0.185704886 41.4406387,0.561241878 C41.8142989,0.937149518 42,1.39006188 42,1.91998897 C42,2.44603928 41.8142989,2.89681791 41.4406387,3.27661235 C41.0693569,3.65640679 40.6206937,3.84410516 40.0988941,3.84410516 L39.0595599,3.84410516 L39.0595599,5.65577463 L40.0988941,5.65577463 C40.6206937,5.65577463 41.0693569,5.84360323 41.4406387,6.22339767 C41.8142989,6.60318209 42,7.05397074 42,7.5757636 C42,8.10781441 41.8142989,8.5628605 41.4406387,8.93839749 C41.0693569,9.31430513 40.6143013,9.5 40.0799878,9.5 C39.5518059,9.5 39.0971316,9.31430513 38.7212135,8.94052121 C38.3435493,8.56925168 38.1558412,8.12058675 38.1558412,7.59880391 L38.1558412,6.55948565 L36.3441488,6.55948565 L36.3441488,6.55948565 L36.3441488,6.55948565 Z M35.4404301,2.94039414 L35.4404301,1.91998897 C35.4404301,1.63812586 35.3402789,1.39820612 35.1401572,1.20010956 C34.9416813,1.00388627 34.6996326,0.903711019 34.4198817,0.903711019 C34.1422783,0.903711019 33.9023471,1.00388627 33.7040016,1.20010956 C33.5037695,1.39820612 33.4037187,1.63812586 33.4037187,1.91998897 C33.4037187,2.19972837 33.5037695,2.44178183 33.7040016,2.64012884 C33.9023471,2.84034912 34.1443958,2.94039414 34.4241467,2.94039414 L35.4404301,2.94039414 L35.4404301,2.94039414 L35.4404301,2.94039414 Z M35.4404301,6.55948565 L34.4241467,6.55948565 C34.1443958,6.55948565 33.9023471,6.6596609 33.7040016,6.85988118 C33.5037695,7.05822818 33.4037187,7.29814792 33.4037187,7.5757636 C33.4037187,7.855503 33.5037695,8.09754644 33.7040016,8.29564301 C33.9023471,8.49612374 34.1443958,8.59628898 34.4241467,8.59628898 C34.70175,8.59628898 34.9416813,8.49611373 35.1401572,8.29564301 C35.3402588,8.09754644 35.4404301,7.85762671 35.4404301,7.58001103 L35.4404301,6.55947563 L35.4404301,6.55948565 L35.4404301,6.55948565 Z M39.0595599,2.94039414 L40.0799778,2.94039414 C40.3576012,2.94039414 40.5975225,2.84031906 40.7959984,2.64012884 C40.9962305,2.44178183 41.0962712,2.19972837 41.0962712,1.91998897 C41.0962712,1.63812586 40.9962204,1.39820612 40.799882,1.20010956 C40.6017774,1.00388627 40.3618562,0.903711019 40.0799778,0.903711019 C39.8003674,0.903711019 39.5581882,1.00388627 39.3598428,1.20010956 C39.1596107,1.39820612 39.0595599,1.63812586 39.0595599,1.91998897 L39.0595599,2.94039414 L39.0595599,2.94039414 L39.0595599,2.94039414 Z M39.0595599,6.55948565 L39.0595599,7.58002105 C39.0595599,7.85762671 39.1596107,8.09754644 39.3598428,8.29564301 C39.5581882,8.49612374 39.8003674,8.596299 40.0799778,8.596299 C40.3618562,8.596299 40.6017774,8.49612374 40.799882,8.29564301 C40.9962305,8.09754644 41.0962813,7.855503 41.0962813,7.5757636 C41.0962813,7.29814792 40.9962305,7.05822818 40.7959984,6.85988118 C40.5975225,6.6596609 40.3576012,6.55948565 40.0799878,6.55948565 L39.0595599,6.55948565 L39.0595599,6.55948565 L39.0595599,6.55948565 Z" id="UR"></path>
                </g>
            </g>
            <g id="Key" transform="translate(105.000000, 0.000000)">
                <g id="Back" stroke-width="0.62503177">
                    <path d="M46.5944363,0 L30.9136164,0 L20.0863836,0 L4.40556369,0 C1.94143485,0 0,2.16240876 0,4.90145986 L0,34.5985402 C0,37.3375912 2.01610542,39.5 4.40556369,39.5 L20.0863836,39.5 L30.9136164,39.5 L46.5944363,39.5 C49.0585651,39.5 51,37.3375912 51,34.5985402 L51,4.90145986 C51,2.16240876 48.9838946,0 46.5944363,0 L46.5944363,0 L46.5944363,0 Z" id="Frame" stroke="#96938E"></path>
                    <path d="M5,5 L46,5 L46,34.5 L5,34.5 L5,5 L5,5 L5,5 Z M25.5000005,34.5 L25.5000005,5 L25.5000005,34.5 L25.5000005,34.5 Z M5,19.7500004 L46,19.7500004 L5,19.7500004 L5,19.7500004 Z" id="Grid" stroke="#BDBFC1"></path>
                </g>
                <g id="Front" transform="translate(4.000000, 5.000000)" fill="#000000">
                    <text id="DL" font-family="VAGRoundedStd-Light, VAG Rounded Std" font-size="10" font-weight="300">
                        <tspan x="0.58" y="29.5">option</tspan>
                    </text>
                    <path d="M38.8093522,9.40660018 C38.8850525,9.47629955 38.9729993,9.50690555 39.0732567,9.49869891 L41.5442015,9.49869891 C41.6721619,9.49869891 41.7799753,9.44305397 41.8679867,9.32921511 C41.9562569,9.21529566 42,9.07486853 42,8.9103417 C42,8.74615744 41.9559982,8.60564971 41.8679867,8.49181085 C41.7799753,8.37789138 41.6721619,8.31703762 41.5442015,8.30625723 L39.3330243,8.30625723 L35.8332171,0.316298542 C35.79689,0.23336751 35.7497321,0.168483768 35.6926709,0.12097233 C35.6165135,0.048355152 35.5279305,0.00852414189 35.4267511,0 L32.9558063,0 C32.8277989,0 32.7198601,0.0583752869 32.6318565,0.17504526 C32.5437431,0.291705156 32.5,0.434600685 32.5,0.604084474 C32.5,0.773820145 32.543845,0.916806345 32.6318565,1.03347632 C32.7198601,1.15012614 32.8277989,1.20291981 32.9558063,1.19244168 L35.1523308,1.19244168 L38.6614365,9.20362866 L38.6614522,9.2035682 C38.7005427,9.28989961 38.7497028,9.35764014 38.8093522,9.40660018 Z M41.5442015,1.19244168 L39.0732567,1.19244168 C38.9452493,1.20291981 38.8373105,1.15012614 38.7493068,1.03347632 C38.6612954,0.916806345 38.6174504,0.773820145 38.6174504,0.604084474 C38.6174504,0.434600685 38.6611935,0.291705156 38.7493068,0.17504526 C38.8373105,0.0583752869 38.9452493,0 39.0732567,0 L41.5442015,0 C41.6721619,0.0107803862 41.7799753,0.0716341543 41.8679867,0.185553617 C41.9559982,0.299392478 42,0.439900202 42,0.604084474 C42,0.768611304 41.9562569,0.909038424 41.8679867,1.02295789 C41.7799753,1.13679675 41.6721619,1.19244168 41.5442015,1.19244168 Z" id="UR"></path>
                    <text id="UL" font-family="VAGRoundedStd-Light, VAG Rounded Std" font-size="8" font-weight="300">
                        <tspan x="0.67" y="6">alt</tspan>
                    </text>
                </g>
            </g>
            <g id="Key" transform="translate(60.000000, 0.000000)">
                <g id="Back" stroke-width="0.62503177">
                    <path d="M32.2506581,0 L21.3970713,0 L13.902928,0 L3.04934108,0 C1.34377742,0 0,2.16240876 0,4.90145986 L0,34.5985402 C0,37.3375912 1.39546117,39.5 3.04934108,39.5 L13.902928,39.5 L21.3970713,39.5 L32.2506581,39.5 C33.9562218,39.5 35.2999992,37.3375912 35.2999992,34.5985402 L35.2999992,4.90145986 C35.2999992,2.16240876 33.9045381,0 32.2506581,0 L32.2506581,0 L32.2506581,0 Z" id="Frame" stroke="#96938E"></path>
                    <path d="M5,5 L30.2999992,5 L30.2999992,34.5 L5,34.5 L5,5 L5,5 L5,5 Z M17.6499999,34.5 L17.6499999,5 L17.6499999,34.5 L17.6499999,34.5 Z M5,19.7500004 L30.2999992,19.7500004 L5,19.7500004 L5,19.7500004 Z" id="Grid" stroke="#BDBFC1"></path>
                </g>
                <g id="Front" transform="translate(4.000000, 5.000000)" fill="#000000">
                    <text id="DL" font-family="VAGRoundedStd-Light, VAG Rounded Std" font-size="10" font-weight="300">
                        <tspan x="0.58" y="29.5">option</tspan>
                    </text>
                    <path d="M23.3093522,9.40660018 C23.3850525,9.47629955 23.4729993,9.50690555 23.5732567,9.49869891 L26.0442015,9.49869891 C26.1721619,9.49869891 26.2799753,9.44305397 26.3679867,9.32921511 C26.4562569,9.21529566 26.5,9.07486853 26.5,8.9103417 C26.5,8.74615744 26.4559982,8.60564971 26.3679867,8.49181085 C26.2799753,8.37789138 26.1721619,8.31703762 26.0442015,8.30625723 L23.8330243,8.30625723 L20.3332171,0.316298542 C20.29689,0.23336751 20.2497321,0.168483768 20.1926709,0.12097233 C20.1165135,0.048355152 20.0279305,0.00852414189 19.9267511,0 L17.4558063,0 C17.3277989,0 17.2198601,0.0583752869 17.1318565,0.17504526 C17.0437431,0.291705156 17,0.434600685 17,0.604084474 C17,0.773820145 17.043845,0.916806345 17.1318565,1.03347632 C17.2198601,1.15012614 17.3277989,1.20291981 17.4558063,1.19244168 L19.6523308,1.19244168 L23.1614365,9.20362866 L23.1614522,9.2035682 C23.2005427,9.28989961 23.2497028,9.35764014 23.3093522,9.40660018 Z M26.0442015,1.19244168 L23.5732567,1.19244168 C23.4452493,1.20291981 23.3373105,1.15012614 23.2493068,1.03347632 C23.1612954,0.916806345 23.1174504,0.773820145 23.1174504,0.604084474 C23.1174504,0.434600685 23.1611935,0.291705156 23.2493068,0.17504526 C23.3373105,0.0583752869 23.4452493,0 23.5732567,0 L26.0442015,0 C26.1721619,0.0107803862 26.2799753,0.0716341543 26.3679867,0.185553617 C26.4559982,0.299392478 26.5,0.439900202 26.5,0.604084474 C26.5,0.768611304 26.4562569,0.909038424 26.3679867,1.02295789 C26.2799753,1.13679675 26.1721619,1.19244168 26.0442015,1.19244168 Z" id="UR"></path>
                    <text id="UL" font-family="VAGRoundedStd-Light, VAG Rounded Std" font-size="8" font-weight="300">
                        <tspan x="0.67" y="6">alt</tspan>
                    </text>
                </g>
            </g>
            <g id="Key">
                <g id="Back" stroke-width="0.62503177">
                    <path d="M46.6008772,0 L30.9429825,0 L20.0570176,0 L4.39912281,0 C1.93859649,0 0,2.16240876 0,4.90145986 L0,34.5985402 C0,37.3375912 2.0131579,39.5 4.39912281,39.5 L20.0570176,39.5 L30.9429825,39.5 L46.6008772,39.5 C49.0614035,39.5 51,37.3375912 51,34.5985402 L51,4.90145986 C51,2.16240876 48.9868421,0 46.6008772,0 L46.6008772,0 L46.6008772,0 Z" id="frame" stroke="#96938E"></path>
                    <path d="M5,5 L46,5 L46,34.5 L5,34.5 L5,5 L5,5 L5,5 Z M25.5,34.5 L25.5,5 L25.5,34.5 L25.5,34.5 Z M5,19.7500004 L46,19.7500004 L5,19.7500004 L5,19.7500004 Z" id="grid" stroke="#BDBFC1"></path>
                </g>
                <g id="Front" transform="translate(4.000000, 5.000000)" fill="#000000">
                    <text id="DL" font-family="VAGRoundedStd-Light, VAG Rounded Std" font-size="10" font-weight="300">
                        <tspan x="0.565" y="29.5">control</tspan>
                    </text>
                    <path d="M37.2406782,1.47756267 L41.0520422,5.35101133 C41.156833,5.45360432 41.2828407,5.49922605 41.4320753,5.48611869 C41.5815938,5.47318407 41.7125704,5.40499535 41.8240767,5.28403174 C41.9353543,5.16331199 41.9945943,5.02469917 41.9996213,4.87039818 C42.0047548,4.71603622 41.9576683,4.58484075 41.8602131,4.47425125 L37.7014814,0.2477775 C37.6917321,0.235922074 37.6815169,0.224200863 37.6708358,0.21261342 C37.5559693,0.0879919456 37.4233219,0.0179946087 37.2720647,0.00292623151 C37.1209228,-0.0122132709 36.9929614,0.0313763031 36.8881283,0.134081062 L32.6397869,4.4859361 C32.5423317,4.5965256 32.4952452,4.72772107 32.5003787,4.88208303 C32.5054057,5.03638402 32.5646457,5.17499684 32.6759233,5.29571659 C32.7874296,5.4166802 32.9184062,5.48486892 33.0679247,5.49780354 C33.2171593,5.5109109 33.343167,5.46528918 33.4479578,5.36269619 L37.2406782,1.47756267 Z" id="UR"></path>
                </g>
            </g>
        </g>
    </g>
</svg>